<svg xmlns="http://www.w3.org/2000/svg" width="37" height="30" viewBox="0 0 37 30">
    <g fill="#B5B5B5" fill-rule="nonzero">
        <path d="M22.58 20.755h-8.16c-.615 0-1.116.52-1.116 1.158v2.597c0 .638.5 1.158 1.116 1.158h8.16c.615 0 1.116-.52 1.116-1.158v-2.597c0-.639-.5-1.158-1.116-1.158zm-.319 3.424h-7.523v-1.936h7.523v1.936z"/>
        <path d="M36.637 14.322l.011-.006-5.376-11.033c-.435-.892-1.303-1.446-2.266-1.446h-1.022V.812a.73.73 0 0 0-.717-.744H9.733a.73.73 0 0 0-.717.744v1.025H7.994c-.963 0-1.83.554-2.265 1.446L.352 14.316l.011.006c-.23.394-.363.855-.363 1.348v11.656c0 1.437 1.127 2.606 2.511 2.606H34.49c1.384 0 2.511-1.169 2.511-2.606V15.67c0-.493-.133-.954-.363-1.348zm-8.653-10.83h1.022c.359 0 .682.205.844.538l4.403 9.034h-2.994v-2.78a.73.73 0 0 0-.717-.744h-.887V5.548a.73.73 0 0 0-.717-.744h-.954V3.49zm1.84 7.536v2.036h-3.783c-.65 0-1.241.397-1.508 1.011L23.5 16.453a.06.06 0 0 1-.055.037h-9.89a.06.06 0 0 1-.055-.037l-1.033-2.378a1.655 1.655 0 0 0-1.508-1.01H7.175v-2.037h22.65zM10.45 1.556h16.1v3.248h-16.1V1.556zm17.77 4.736V9.54H8.78V6.292h19.44zM7.15 4.03a.938.938 0 0 1 .844-.539h1.022v1.313h-.954a.73.73 0 0 0-.717.744V9.54h-.887a.73.73 0 0 0-.717.744v2.78H2.747L7.15 4.03zM34.49 28.279H2.51c-.506 0-.918-.428-.918-.953V15.67c0-.525.412-.952.918-.952h8.448a.06.06 0 0 1 .055.037l1.033 2.378a1.655 1.655 0 0 0 1.508 1.011h9.89c.649 0 1.24-.397 1.508-1.01l1.033-2.379a.06.06 0 0 1 .055-.037h8.448c.506 0 .917.427.917.952v11.656c0 .525-.411.953-.917.953z"/>
    </g>
</svg>
