<svg xmlns="http://www.w3.org/2000/svg" width="57" height="61" viewBox="0 0 57 61">
    <g fill="none" fill-rule="nonzero">
        <path fill="#32D0BC" d="M1.12 34c.535-.071.925-.786.876-1.571-.049-.643-.049-1.286-.049-2 0-.786-.438-1.429-.973-1.429C.438 29 0 29.643 0 30.429c0 .714 0 1.5.049 2.285C.097 33.43.535 34 1.022 34h.098z"/>
        <path fill="#042E4A" d="M28.497 0C20.442 0 12.76 3.713 7.43 10.012V1.326C7.43.596 6.872 0 6.19 0 5.51 0 4.952.597 4.952 1.326v13.261c0 .73.558 1.326 1.24 1.326h12.392c.682 0 1.24-.597 1.24-1.326 0-.73-.558-1.326-1.24-1.326H8.111C13.006 6.63 20.566 2.652 28.497 2.652c14.376 0 26.024 12.465 26.024 27.848S42.873 58.348 28.497 58.348c-11.525 0-21.81-8.288-25.033-20.223-.186-.73-.867-1.127-1.549-.928-.681.199-1.053.928-.867 1.657C4.58 51.916 15.857 61 28.498 61 44.235 61 57 47.341 57 30.5S44.236 0 28.497 0z"/>
        <path fill="#042E4A" d="M28.236 16c-.68 0-1.236.601-1.236 1.336v12.695c0 .334.124.668.37.936L40.9 45.599c.247.267.556.401.864.401.31 0 .618-.134.865-.4a1.366 1.366 0 0 0 0-1.872L29.471 29.497v-12.16c0-.736-.556-1.337-1.235-1.337z"/>
    </g>
</svg>
