<svg xmlns="http://www.w3.org/2000/svg" xmlns:xlink="http://www.w3.org/1999/xlink" width="269" height="263" viewBox="0 0 269 263">
    <defs>
        <path id="b" d="M4.25 0H156.4a4.25 4.25 0 0 1 4.25 4.25V212.5a4.25 4.25 0 0 1-4.25 4.25H4.25A4.25 4.25 0 0 1 0 212.5V4.25A4.25 4.25 0 0 1 4.25 0z"/>
        <filter id="a" width="106.8%" height="105.1%" x="-3.4%" y="-1.6%" filterUnits="objectBoundingBox">
            <feOffset dy="2" in="SourceAlpha" result="shadowOffsetOuter1"/>
            <feGaussianBlur in="shadowOffsetOuter1" result="shadowBlurOuter1" stdDeviation="1.5"/>
            <feColorMatrix in="shadowBlurOuter1" values="0 0 0 0 0 0 0 0 0 0 0 0 0 0 0 0 0 0 0.5 0"/>
        </filter>
    </defs>
    <g fill="none" fill-rule="evenodd">
        <path fill="#AAB7C4" d="M165.282 59.977a6.252 6.252 0 0 0 7.078-.111l44.443-31.326a5.998 5.998 0 0 1 8.423 1.584c1.88 2.81 1.203 6.644-1.554 8.586L189.28 62.907c-3.033 2.146-3.81 6.387-1.705 9.48 2.106 3.09 6.267 3.883 9.3 1.737l8.698-6.107a5.998 5.998 0 0 1 8.423 1.584c1.88 2.81 1.203 6.643-1.554 8.585l-12.985 9.148c-3.033 2.146-3.81 6.388-1.705 9.48l.351.536c2.106 3.092 6.267 3.884 9.3 1.737l49.683-34.954a5.998 5.998 0 0 1 8.422 1.584 6.234 6.234 0 0 1-1.579 8.611l-41.05 28.882c.15.15.289.318.414.502 1.053 1.584.677 3.73-.877 4.83l-10.528 7.41c-1.63 1.15-2.03 3.423-.903 5.084a3.54 3.54 0 0 0 4.988.92l24.992-17.58a3.376 3.376 0 0 1 4.738.895c1.053 1.584.677 3.73-.878 4.829l-19.351 13.619c-1.705 1.2-2.13 3.603-.953 5.34a3.73 3.73 0 0 0 5.24.971l4.887-3.45a3.376 3.376 0 0 1 4.738.895c1.053 1.584.677 3.73-.877 4.83l-7.32 5.135c-1.705 1.2-2.13 3.603-.953 5.34l.201.307a3.73 3.73 0 0 0 5.239.97l27.95-19.674a3.376 3.376 0 0 1 4.737.894c1.078 1.585.677 3.757-.852 4.855L97.006 250.096a3.376 3.376 0 0 1-4.738-.895c-1.052-1.584-.676-3.73.878-4.829l4.687-3.296c1.705-1.2 2.131-3.603.953-5.34l-.2-.307a3.73 3.73 0 0 0-5.24-.97l-38.151 26.854a3.376 3.376 0 0 1-4.738-.894c-1.053-1.585-.677-3.731.877-4.83l74.248-52.227c1.705-1.2 2.131-3.602.953-5.34a3.73 3.73 0 0 0-5.24-.97l-26.144 18.396a3.376 3.376 0 0 1-4.738-.894c-1.052-1.584-.676-3.73.878-4.83l7.946-5.595c1.63-1.15 2.03-3.424.902-5.085a3.54 3.54 0 0 0-4.988-.92l-22.41 15.766a3.376 3.376 0 0 1-4.737-.895c-1.053-1.584-.677-3.73.877-4.829l9.199-6.475a6.05 6.05 0 0 1-2.704-2.212c-1.88-2.811-1.203-6.644 1.554-8.586l8.347-5.876c3.034-2.147 3.81-6.388 1.705-9.48l-.35-.537c-2.107-3.091-6.268-3.883-9.3-1.737L9.5 220.993a5.998 5.998 0 0 1-8.422-1.584c-1.88-2.811-1.203-6.644 1.554-8.586l131.977-92.853c3.033-2.147 3.81-6.388 1.705-9.48-2.106-3.091-6.267-3.884-9.3-1.737L80.54 139.458a5.998 5.998 0 0 1-8.423-1.584c-1.88-2.81-1.203-6.643 1.555-8.585l14.112-9.94c2.196-1.524 3.148-4.2 2.619-6.695l-38.066 26.779a4.732 4.732 0 0 1-6.643-1.252 4.964 4.964 0 0 1-.464-4.646l-4.496 3.164a5.998 5.998 0 0 1-8.423-1.584 6.3 6.3 0 0 1-.054-6.917l-3.709 2.65a4.732 4.732 0 0 1-6.642-1.252c-1.48-2.198-.953-5.238 1.228-6.771l69.36-49.008c2.406-1.686 3.008-5.034 1.354-7.486-1.655-2.453-4.939-3.067-7.345-1.38L49.78 90.783a4.732 4.732 0 0 1-6.643-1.252c-1.479-2.197-.952-5.238 1.229-6.771l11.18-7.844c2.28-1.61 2.857-4.804 1.278-7.129-1.58-2.325-4.713-2.913-6.994-1.303L18.371 88.61a4.732 4.732 0 0 1-6.642-1.252c-1.48-2.197-.953-5.238 1.228-6.77L126.008 1.046a4.732 4.732 0 0 1 6.643 1.252c1.48 2.197.953 5.238-1.228 6.771l-14.79 10.4c-2.28 1.61-2.857 4.803-1.278 7.128 1.58 2.325 4.713 2.913 6.994 1.303L157.442 3.22a4.732 4.732 0 0 1 6.643 1.252c1.479 2.197.953 5.238-1.228 6.77L135.759 30.33c-2.406 1.686-3.008 5.033-1.353 7.486 1.654 2.453 4.938 3.066 7.344 1.38l6.869-4.83a4.732 4.732 0 0 1 6.642 1.253 4.967 4.967 0 0 1 .015 5.495l21.721-15.281a5.998 5.998 0 0 1 8.423 1.584 6.303 6.303 0 0 1 .415 6.283l3.442-2.425a4.732 4.732 0 0 1 6.643 1.252c1.504 2.223.952 5.264-1.278 6.797l-29.36 20.654z" opacity=".301"/>
        <g transform="translate(81.25 2)">
            <rect width="117.3" height="33.15" x=".425" y=".425" fill="#FAFAFA" stroke="#EDEDED" stroke-width=".85" rx="3.4"/>
            <rect width="33.15" height="33.15" x=".425" y=".425" fill="#FFF" stroke="#EDEDED" stroke-width=".85" rx="3.4"/>
            <text fill="#555" font-family="ico_stratio" font-size="15.3">
                <tspan x="9.35" y="23.35"></tspan>
            </text>
            <text fill="#555" font-family="NunitoSans-Regular, Nunito Sans" font-size="11.9">
                <tspan x="42.5" y="21.35">100%</tspan>
            </text>
            <g>
                <rect width="33.15" height="33.15" x=".425" y=".425" fill="#FFF" stroke="#EDEDED" stroke-width=".85" rx="3.4" transform="translate(84.15)"/>
                <text fill="#555" font-family="ico_stratio" font-size="15.3" transform="translate(84.15)">
                    <tspan x="9.35" y="23.35"></tspan>
                </text>
            </g>
        </g>
        <g transform="translate(60 41.1)">
            <use fill="#000" filter="url(#a)" xlink:href="#b"/>
            <use fill="#FFF" xlink:href="#b"/>
        </g>
        <path fill="#EDEDED" d="M60 113.35h160.65v1H60z"/>
        <text fill="#3C3C3C" font-family="NunitoSans-Regular, Nunito Sans" font-size="13.6" transform="translate(60 79.35)">
            <tspan x="25.5" y="22.5">Zoom out</tspan>
        </text>
        <text fill="#999" font-family="ico_stratio" font-size="11.9" transform="translate(60 79.35)">
            <tspan x="130.05" y="22.05"></tspan>
        </text>
        <text fill="#3C3C3C" font-family="NunitoSans-Regular, Nunito Sans" font-size="13.6" transform="translate(60 113.35)">
            <tspan x="25.5" y="22.5">Zoom to fit</tspan>
        </text>
        <text fill="#999" font-family="NunitoSans-Regular, Nunito Sans" font-size="13.6" transform="translate(60 113.35)">
            <tspan x="139.4" y="22.5">1</tspan>
        </text>
        <text fill="#999" font-family="LucidaGrande, Lucida Grande" font-size="11.9" transform="translate(60 113.35)">
            <tspan x="126.65" y="22.2">⇧</tspan>
        </text>
        <text fill="#3C3C3C" font-family="NunitoSans-Regular, Nunito Sans" font-size="13.6" transform="translate(60 147.35)">
            <tspan x="25.5" y="22.5">50%</tspan>
        </text>
        <g>
            <text fill="#3C3C3C" font-family="NunitoSans-Regular, Nunito Sans" font-size="13.6" transform="translate(60 181.35)">
                <tspan x="25.5" y="22.5">100%</tspan>
            </text>
            <text fill="#999" font-family="NunitoSans-Regular, Nunito Sans" font-size="13.6" transform="translate(60 181.35)">
                <tspan x="139.4" y="22.5">0</tspan>
            </text>
            <text fill="#999" font-family="LucidaGrande, Lucida Grande" font-size="11.9" transform="translate(60 181.35)">
                <tspan x="126.65" y="22.2">⇧</tspan>
            </text>
        </g>
        <g fill="#3C3C3C" font-family="NunitoSans-Regular, Nunito Sans" font-size="13.6">
            <text transform="translate(60 215.35)">
                <tspan x="25.5" y="22.5">200%</tspan>
            </text>
        </g>
        <g>
            <text fill="#3C3C3C" font-family="NunitoSans-Regular, Nunito Sans" font-size="13.6" transform="translate(60 45.35)">
                <tspan x="25.5" y="23.35">Zoom in</tspan>
            </text>
            <text fill="#999" font-family="ico_stratio" font-size="11.9" transform="translate(60 45.35)">
                <tspan x="130.05" y="23.75"></tspan>
            </text>
        </g>
        <text fill="#111" font-family="ico_stratio" font-size="17">
            <tspan x="133.95" y="40.1"></tspan>
        </text>
    </g>
</svg>
