<svg xmlns="http://www.w3.org/2000/svg" xmlns:xlink="http://www.w3.org/1999/xlink" width="394" height="249" viewBox="0 0 394 249">
    <defs>
        <path id="a" d="M0 33.25h393.3v153.9H0z"/>
        <mask id="b" width="393.3" height="153.9" x="0" y="0" fill="#fff">
            <use xlink:href="#a"/>
        </mask>
    </defs>
    <g fill="none" fill-rule="evenodd">
        <g opacity=".353">
            <path fill="#AAB7C4" d="M233.968 56.978a5.94 5.94 0 0 0 6.724-.105l42.221-29.76a5.698 5.698 0 0 1 8.001 1.505c1.786 2.67 1.144 6.311-1.476 8.156l-32.672 22.987c-2.882 2.04-3.62 6.069-1.62 9.006 2 2.937 5.954 3.69 8.835 1.65l8.264-5.8a5.698 5.698 0 0 1 8.001 1.504c1.786 2.67 1.143 6.311-1.476 8.156l-12.336 8.69c-2.881 2.039-3.62 6.068-1.62 9.006l.334.51c2 2.936 5.954 3.689 8.835 1.65l47.198-33.207a5.698 5.698 0 0 1 8.002 1.505 5.922 5.922 0 0 1-1.5 8.18L288.685 98.05c.143.144.275.303.393.478 1 1.505.643 3.544-.833 4.587l-10.002 7.04c-1.548 1.092-1.929 3.252-.857 4.83a3.362 3.362 0 0 0 4.739.874l23.742-16.7a3.208 3.208 0 0 1 4.5.85c1 1.504.644 3.543-.833 4.587l-18.384 12.938c-1.62 1.14-2.024 3.423-.905 5.073a3.543 3.543 0 0 0 4.977.923l4.644-3.277a3.208 3.208 0 0 1 4.5.85c1 1.504.644 3.543-.833 4.587l-6.953 4.879c-1.62 1.14-2.025 3.423-.905 5.073l.19.291a3.543 3.543 0 0 0 4.977.923l26.552-18.691a3.208 3.208 0 0 1 4.501.85c1.024 1.505.643 3.568-.81 4.612L169.105 237.59a3.208 3.208 0 0 1-4.5-.85c-1-1.505-.643-3.544.833-4.587l4.454-3.132c1.619-1.14 2.024-3.422.905-5.073l-.191-.291a3.543 3.543 0 0 0-4.977-.923l-36.244 25.512a3.208 3.208 0 0 1-4.5-.85c-1.001-1.504-.644-3.543.833-4.587l70.535-49.616c1.62-1.14 2.024-3.422.905-5.073a3.543 3.543 0 0 0-4.977-.922l-24.837 17.477a3.208 3.208 0 0 1-4.501-.85c-1-1.505-.643-3.544.833-4.588l7.55-5.316c1.547-1.092 1.928-3.252.856-4.83a3.362 3.362 0 0 0-4.738-.874l-21.29 14.977a3.208 3.208 0 0 1-4.5-.85c-1-1.505-.643-3.543.833-4.587l8.739-6.151a5.748 5.748 0 0 1-2.569-2.102c-1.786-2.67-1.143-6.312 1.477-8.156l7.93-5.583c2.881-2.04 3.62-6.069 1.619-9.006l-.333-.51c-2-2.937-5.954-3.69-8.835-1.65l-64.44 45.343a5.698 5.698 0 0 1-8.001-1.505c-1.786-2.67-1.143-6.311 1.476-8.156l125.379-88.21c2.881-2.04 3.62-6.07 1.619-9.006-2-2.937-5.953-3.69-8.835-1.65l-44.15 31.07a5.698 5.698 0 0 1-8.002-1.505c-1.786-2.67-1.143-6.312 1.477-8.156l13.407-9.443c2.086-1.448 2.99-3.99 2.488-6.36l-36.163 25.44a4.496 4.496 0 0 1-6.31-1.19 4.715 4.715 0 0 1-.442-4.414l-4.271 3.006a5.698 5.698 0 0 1-8.001-1.505 5.984 5.984 0 0 1-.052-6.571l-3.523 2.517a4.496 4.496 0 0 1-6.31-1.19c-1.406-2.087-.905-4.975 1.166-6.432l65.892-46.557c2.286-1.602 2.858-4.782 1.286-7.112-1.571-2.33-4.691-2.913-6.977-1.31l-34.887 24.54a4.496 4.496 0 0 1-6.31-1.19c-1.405-2.087-.905-4.976 1.166-6.432l10.621-7.452c2.167-1.53 2.715-4.563 1.215-6.772-1.5-2.21-4.477-2.768-6.644-1.238L94.403 84.18a4.496 4.496 0 0 1-6.31-1.189c-1.406-2.087-.906-4.976 1.166-6.432L196.658.995a4.496 4.496 0 0 1 6.31 1.189c1.406 2.087.906 4.976-1.166 6.432l-14.05 9.88c-2.167 1.53-2.715 4.563-1.215 6.772 1.5 2.21 4.477 2.768 6.644 1.238l33.34-23.448a4.496 4.496 0 0 1 6.31 1.19c1.405 2.087.905 4.975-1.167 6.432L205.92 28.812c-2.286 1.602-2.857 4.782-1.285 7.112 1.571 2.33 4.69 2.913 6.977 1.311l6.525-4.587a4.496 4.496 0 0 1 6.31 1.189 4.718 4.718 0 0 1 .014 5.22l20.635-14.517a5.698 5.698 0 0 1 8.002 1.505 5.988 5.988 0 0 1 .394 5.969l3.27-2.304a4.496 4.496 0 0 1 6.31 1.19c1.43 2.112.906 5-1.214 6.457l-27.891 19.621z" opacity=".301"/>
            <g transform="translate(88.35 6.65)">
                <circle cx="95" cy="19.95" r="1" fill="#FFF"/>
                <circle cx="191.9" cy="88.35" r="1" fill="#FFF"/>
                <circle cx="96.9" cy="197.6" r="1" fill="#FFF"/>
                <circle cx="150.1" cy="174.8" r="1" fill="#FFF"/>
                <circle cx="60.8" cy="178.6" r="1" fill="#FFF"/>
                <circle cx="14.25" cy="116.85" r="1" fill="#FFF"/>
                <circle cx="19.95" cy="68.4" r="1" fill="#FFF"/>
                <g transform="translate(167.2 171)">
                    <ellipse cx="4.325" cy="4.275" fill="#E34D00" rx="4.124" ry="4.249"/>
                    <path fill="#FF6500" d="M6.362 2.435c0-.777-.201-1.502-.553-2.124A3.99 3.99 0 0 0 4.325.026C2.062.026.201 1.917.201 4.275c0 .777.201 1.503.553 2.125a3.99 3.99 0 0 0 1.484.285c2.288 0 4.124-1.918 4.124-4.25z"/>
                </g>
                <path fill="#FFF" d="M152.95 14.25l.35 2.511 2.5.326-2.5.352-.35 2.511-.325-2.511-2.525-.352 2.525-.326zM221.813 110.2l.518 3.769 3.769.494-3.769.518-.518 3.769-.494-3.769-3.769-.518 3.769-.494zM36.111 26.6l.228 1.661L38 28.49l-1.661.227-.228 1.684-.227-1.684-1.684-.227 1.684-.228zM3.337 162.45l.373 2.927 2.94.398-2.94.398-.373 2.927-.397-2.927-2.94-.398 2.94-.398zM129.675 178.6l.503 3.772 3.772.503-3.772.503-.503 3.772-.503-3.772-3.772-.503 3.772-.503zM64.6 19l.454 3.346 3.346.454-3.346.454L64.6 26.6l-.454-3.346L60.8 22.8l3.346-.454zM101.186 0l.265 2.099 2.099.287-2.099.265-.265 2.099-.287-2.099-2.099-.265 2.099-.287zM59.84 202.35l.235 2.093 1.675.295-1.675.269-.236 2.093-.214-2.093-1.675-.269 1.675-.295z"/>
            </g>
        </g>
        <path fill="#FFF" stroke="#78C7DD" stroke-width="1.9" d="M206.15 153.9h117.8a8.55 8.55 0 0 1 8.55 8.55v60.8a8.55 8.55 0 0 1-8.55 8.55h-117.8a8.55 8.55 0 0 1-8.55-8.55v-60.8a8.55 8.55 0 0 1 8.55-8.55zM259.35 38h117.8a8.55 8.55 0 0 1 8.55 8.55v60.8a8.55 8.55 0 0 1-8.55 8.55h-117.8a8.55 8.55 0 0 1-8.55-8.55v-60.8a8.55 8.55 0 0 1 8.55-8.55zM44.65 126.35h117.8a8.55 8.55 0 0 1 8.55 8.55v60.8a8.55 8.55 0 0 1-8.55 8.55H44.65a8.55 8.55 0 0 1-8.55-8.55v-60.8a8.55 8.55 0 0 1 8.55-8.55z"/>
        <text fill="#0F1B27" font-family="NunitoSans-Light, Nunito Sans" font-size="14.25" font-weight="300" letter-spacing="-.604">
            <tspan x="208.05" y="216.35">Step-2</tspan>
        </text>
        <text fill="#0F1B27" font-family="NunitoSans-Light, Nunito Sans" font-size="14.25" font-weight="300" letter-spacing="-.604">
            <tspan x="261.25" y="100.45">Step-3</tspan>
        </text>
        <text fill="#0F1B27" font-family="NunitoSans-Light, Nunito Sans" font-size="14.25" font-weight="300" letter-spacing="-.604">
            <tspan x="46.55" y="188.8">Step-1</tspan>
        </text>
        <text fill="#0F1B27" font-family="ico_stratio" font-size="19.95" letter-spacing="-.845">
            <tspan x="208.05" y="183.35"></tspan>
        </text>
        <text fill="#0F1B27" font-family="ico_stratio" font-size="19.95" letter-spacing="-.845">
            <tspan x="261.25" y="67.45"></tspan>
        </text>
        <text fill="#0F1B27" font-family="ico_stratio" font-size="19.95" letter-spacing="-.845">
            <tspan x="46.55" y="155.8"></tspan>
        </text>
        <use stroke="#128BDD" stroke-dasharray="11.4" stroke-width="1.9" mask="url(#b)" xlink:href="#a"/>
    </g>
</svg>
