<svg xmlns="http://www.w3.org/2000/svg" xmlns:xlink="http://www.w3.org/1999/xlink" width="269" height="262" viewBox="0 0 269 262">
    <defs>
        <path id="a" d="M.193.156H226.91v96.828H.192z"/>
    </defs>
    <g fill="none" fill-rule="evenodd">
        <path fill="#AAB7C4" d="M165.282 59.977a6.252 6.252 0 0 0 7.078-.111l44.443-31.326a5.998 5.998 0 0 1 8.423 1.584c1.88 2.81 1.203 6.644-1.554 8.586L189.28 62.907c-3.033 2.146-3.81 6.387-1.705 9.48 2.106 3.09 6.267 3.883 9.3 1.737l8.698-6.107a5.998 5.998 0 0 1 8.423 1.584c1.88 2.81 1.203 6.643-1.554 8.585l-12.985 9.148c-3.033 2.146-3.81 6.388-1.705 9.48l.351.536c2.106 3.092 6.267 3.884 9.3 1.737l49.683-34.954a5.998 5.998 0 0 1 8.422 1.584 6.234 6.234 0 0 1-1.579 8.611l-41.05 28.882c.15.15.289.318.414.502 1.053 1.584.677 3.73-.877 4.83l-10.528 7.41c-1.63 1.15-2.03 3.423-.903 5.084a3.54 3.54 0 0 0 4.988.92l24.992-17.58a3.376 3.376 0 0 1 4.738.895c1.053 1.584.677 3.73-.878 4.829l-19.351 13.619c-1.705 1.2-2.13 3.603-.953 5.34a3.73 3.73 0 0 0 5.24.971l4.887-3.45a3.376 3.376 0 0 1 4.738.895c1.053 1.584.677 3.73-.877 4.83l-7.32 5.135c-1.705 1.2-2.13 3.603-.953 5.34l.201.307a3.73 3.73 0 0 0 5.239.97l27.95-19.674a3.376 3.376 0 0 1 4.737.894c1.078 1.585.677 3.757-.852 4.855L97.006 250.096a3.376 3.376 0 0 1-4.738-.895c-1.052-1.584-.676-3.73.878-4.829l4.687-3.296c1.705-1.2 2.131-3.603.953-5.34l-.2-.307a3.73 3.73 0 0 0-5.24-.97l-38.151 26.854a3.376 3.376 0 0 1-4.738-.894c-1.053-1.585-.677-3.731.877-4.83l74.248-52.227c1.705-1.2 2.131-3.602.953-5.34a3.73 3.73 0 0 0-5.24-.97l-26.144 18.396a3.376 3.376 0 0 1-4.738-.894c-1.052-1.584-.676-3.73.878-4.83l7.946-5.595c1.63-1.15 2.03-3.424.902-5.085a3.54 3.54 0 0 0-4.988-.92l-22.41 15.766a3.376 3.376 0 0 1-4.737-.895c-1.053-1.584-.677-3.73.877-4.829l9.199-6.475a6.05 6.05 0 0 1-2.704-2.212c-1.88-2.811-1.203-6.644 1.554-8.586l8.347-5.876c3.034-2.147 3.81-6.388 1.705-9.48l-.35-.537c-2.107-3.091-6.268-3.883-9.3-1.737L9.5 220.993a5.998 5.998 0 0 1-8.422-1.584c-1.88-2.811-1.203-6.644 1.554-8.586l131.977-92.853c3.033-2.147 3.81-6.388 1.705-9.48-2.106-3.091-6.267-3.884-9.3-1.737L80.54 139.458a5.998 5.998 0 0 1-8.423-1.584c-1.88-2.81-1.203-6.643 1.555-8.585l14.112-9.94c2.196-1.524 3.148-4.2 2.619-6.695l-38.066 26.779a4.732 4.732 0 0 1-6.643-1.252 4.964 4.964 0 0 1-.464-4.646l-4.496 3.164a5.998 5.998 0 0 1-8.423-1.584 6.3 6.3 0 0 1-.054-6.917l-3.709 2.65a4.732 4.732 0 0 1-6.642-1.252c-1.48-2.198-.953-5.238 1.228-6.771l69.36-49.008c2.406-1.686 3.008-5.034 1.354-7.486-1.655-2.453-4.939-3.067-7.345-1.38L49.78 90.783a4.732 4.732 0 0 1-6.643-1.252c-1.479-2.197-.952-5.238 1.229-6.771l11.18-7.844c2.28-1.61 2.857-4.804 1.278-7.129-1.58-2.325-4.713-2.913-6.994-1.303L18.371 88.61a4.732 4.732 0 0 1-6.642-1.252c-1.48-2.197-.953-5.238 1.228-6.77L126.008 1.046a4.732 4.732 0 0 1 6.643 1.252c1.48 2.197.953 5.238-1.228 6.771l-14.79 10.4c-2.28 1.61-2.857 4.803-1.278 7.128 1.58 2.325 4.713 2.913 6.994 1.303L157.442 3.22a4.732 4.732 0 0 1 6.643 1.252c1.479 2.197.953 5.238-1.228 6.77L135.759 30.33c-2.406 1.686-3.008 5.033-1.353 7.486 1.654 2.453 4.938 3.066 7.344 1.38l6.869-4.83a4.732 4.732 0 0 1 6.642 1.253 4.967 4.967 0 0 1 .015 5.495l21.721-15.281a5.998 5.998 0 0 1 8.423 1.584 6.303 6.303 0 0 1 .415 6.283l3.442-2.425a4.732 4.732 0 0 1 6.643 1.252c1.504 2.223.952 5.264-1.278 6.797l-29.36 20.654z" opacity=".185"/>
        <g transform="translate(30 147.306)">
            <mask id="b" fill="#fff">
                <use xlink:href="#a"/>
            </mask>
            <path fill="#CDD6DF" d="M220.692.156H6.41C2.975.156.192 2.953.192 6.405v84.332c0 3.45 2.783 6.247 6.218 6.247h214.282c3.434 0 6.218-2.797 6.218-6.247V6.405c0-3.452-2.784-6.249-6.218-6.249" mask="url(#b)"/>
        </g>
        <path fill="#F4F4F4" d="M246.5 144H32.218C28.784 144 26 146.797 26 150.25v84.332c0 3.45 2.784 6.248 6.218 6.248H246.5c3.435 0 6.22-2.798 6.22-6.248v-84.332c0-3.452-2.785-6.249-6.22-6.249"/>
        <path fill="#DEDEDE" d="M49.952 154.684H39.059c-.608 0-1.101.496-1.101 1.106v5.875c0 .612.493 1.106 1.1 1.106h10.894c.607 0 1.1-.494 1.1-1.106v-5.875c0-.61-.493-1.106-1.1-1.106M67.222 154.684h-10.94c-.595 0-1.078.506-1.078 1.13v5.827c0 .624.483 1.13 1.077 1.13h10.941c.594 0 1.077-.506 1.077-1.13v-5.827c0-.624-.483-1.13-1.077-1.13M84.468 154.684h-10.94c-.595 0-1.078.506-1.078 1.13v5.827c0 .624.483 1.13 1.078 1.13h10.94c.594 0 1.077-.506 1.077-1.13v-5.827c0-.624-.483-1.13-1.077-1.13M101.714 154.684h-10.94c-.595 0-1.078.506-1.078 1.13v5.827c0 .624.483 1.13 1.077 1.13h10.941c.594 0 1.077-.506 1.077-1.13v-5.827c0-.624-.483-1.13-1.077-1.13M118.96 154.684h-10.94c-.594 0-1.077.506-1.077 1.13v5.827c0 .624.483 1.13 1.077 1.13h10.94c.595 0 1.078-.506 1.078-1.13v-5.827c0-.624-.483-1.13-1.077-1.13M136.206 154.684h-10.94c-.595 0-1.078.506-1.078 1.13v5.827c0 .624.483 1.13 1.079 1.13h10.94c.595 0 1.076-.506 1.076-1.13v-5.827c0-.624-.481-1.13-1.077-1.13M153.452 154.684h-10.939c-.596 0-1.079.506-1.079 1.13v5.827c0 .624.483 1.13 1.079 1.13h10.94c.595 0 1.076-.506 1.076-1.13v-5.827c0-.624-.481-1.13-1.077-1.13M170.699 154.684h-10.941c-.594 0-1.077.506-1.077 1.13v5.827c0 .624.483 1.13 1.077 1.13h10.94c.595 0 1.078-.506 1.078-1.13v-5.827c0-.624-.483-1.13-1.077-1.13M187.945 154.684h-10.94c-.595 0-1.077.506-1.077 1.13v5.827c0 .624.482 1.13 1.077 1.13h10.94c.594 0 1.078-.506 1.078-1.13v-5.827c0-.624-.484-1.13-1.078-1.13M205.191 154.684h-10.94c-.595 0-1.078.506-1.078 1.13v5.827c0 .624.483 1.13 1.077 1.13h10.941c.595 0 1.077-.506 1.077-1.13v-5.827c0-.624-.482-1.13-1.077-1.13M222.437 154.684h-10.94c-.595 0-1.078.506-1.078 1.13v5.827c0 .624.483 1.13 1.077 1.13h10.941c.594 0 1.077-.506 1.077-1.13v-5.827c0-.624-.483-1.13-1.077-1.13M239.66 154.684h-10.894c-.607 0-1.1.496-1.1 1.106v5.875c0 .612.493 1.106 1.1 1.106h10.893c.608 0 1.101-.494 1.101-1.106v-5.875c0-.61-.493-1.106-1.1-1.106M49.952 167.201H39.059c-.608 0-1.101.495-1.101 1.105v9.612c0 .612.493 1.108 1.1 1.108h10.894c.607 0 1.1-.496 1.1-1.108v-9.612c0-.61-.493-1.105-1.1-1.105M67.222 167.201h-10.94c-.595 0-1.078.507-1.078 1.13v9.564c0 .624.483 1.13 1.077 1.13h10.941c.594 0 1.077-.506 1.077-1.13v-9.563c0-.624-.483-1.13-1.077-1.13M84.468 167.201h-10.94c-.595 0-1.078.507-1.078 1.13v9.564c0 .624.483 1.13 1.078 1.13h10.94c.594 0 1.077-.506 1.077-1.13v-9.563c0-.624-.483-1.13-1.077-1.13M101.714 167.201h-10.94c-.595 0-1.078.507-1.078 1.13v9.564c0 .624.483 1.13 1.077 1.13h10.941c.594 0 1.077-.506 1.077-1.13v-9.563c0-.624-.483-1.13-1.077-1.13M118.96 167.201h-10.94c-.594 0-1.077.507-1.077 1.13v9.564c0 .624.483 1.13 1.077 1.13h10.94c.595 0 1.078-.506 1.078-1.13v-9.563c0-.624-.483-1.13-1.077-1.13M136.206 167.201h-10.94c-.595 0-1.078.507-1.078 1.13v9.564c0 .624.483 1.13 1.079 1.13h10.94c.595 0 1.076-.506 1.076-1.13v-9.563c0-.624-.481-1.13-1.077-1.13M153.452 167.201h-10.939c-.596 0-1.079.507-1.079 1.13v9.564c0 .624.483 1.13 1.079 1.13h10.94c.595 0 1.076-.506 1.076-1.13v-9.563c0-.624-.481-1.13-1.077-1.13M170.699 167.201h-10.941c-.594 0-1.077.507-1.077 1.13v9.564c0 .624.483 1.13 1.077 1.13h10.94c.595 0 1.078-.506 1.078-1.13v-9.563c0-.624-.483-1.13-1.077-1.13M187.945 167.201h-10.94c-.595 0-1.077.507-1.077 1.13v9.564c0 .624.482 1.13 1.077 1.13h10.94c.594 0 1.078-.506 1.078-1.13v-9.563c0-.624-.484-1.13-1.078-1.13M205.191 167.201h-10.94c-.595 0-1.078.507-1.078 1.13v9.564c0 .624.483 1.13 1.077 1.13h10.941c.595 0 1.077-.506 1.077-1.13v-9.563c0-.624-.482-1.13-1.077-1.13M222.437 167.201h-10.94c-.595 0-1.078.507-1.078 1.13v9.564c0 .624.483 1.13 1.077 1.13h10.941c.594 0 1.077-.506 1.077-1.13v-9.563c0-.624-.483-1.13-1.077-1.13M239.66 167.201h-10.894c-.607 0-1.1.495-1.1 1.105v9.612c0 .612.493 1.108 1.1 1.108h10.893c.608 0 1.101-.496 1.101-1.108v-9.612c0-.61-.493-1.105-1.1-1.105M67.222 183.567H39.034c-.594 0-1.077.506-1.077 1.13v9.564c0 .624.483 1.13 1.077 1.13h28.188c.594 0 1.077-.506 1.077-1.13v-9.564c0-.624-.483-1.13-1.077-1.13M84.468 183.567h-10.94c-.595 0-1.078.506-1.078 1.13v9.564c0 .624.483 1.13 1.078 1.13h10.94c.594 0 1.077-.506 1.077-1.13v-9.564c0-.624-.483-1.13-1.077-1.13M101.714 183.567h-10.94c-.595 0-1.078.506-1.078 1.13v9.564c0 .624.483 1.13 1.077 1.13h10.941c.594 0 1.077-.506 1.077-1.13v-9.564c0-.624-.483-1.13-1.077-1.13M118.96 183.567h-10.94c-.594 0-1.077.506-1.077 1.13v9.564c0 .624.483 1.13 1.077 1.13h10.94c.595 0 1.078-.506 1.078-1.13v-9.564c0-.624-.483-1.13-1.077-1.13M136.206 183.567h-10.94c-.595 0-1.078.506-1.078 1.13v9.564c0 .624.483 1.13 1.079 1.13h10.94c.595 0 1.076-.506 1.076-1.13v-9.564c0-.624-.481-1.13-1.077-1.13M153.452 183.567h-10.939c-.596 0-1.079.506-1.079 1.13v9.564c0 .624.483 1.13 1.079 1.13h10.94c.595 0 1.076-.506 1.076-1.13v-9.564c0-.624-.481-1.13-1.077-1.13M170.699 183.567h-10.941c-.594 0-1.077.506-1.077 1.13v9.564c0 .624.483 1.13 1.077 1.13h10.94c.595 0 1.078-.506 1.078-1.13v-9.564c0-.624-.483-1.13-1.077-1.13M187.945 183.567h-10.94c-.595 0-1.077.506-1.077 1.13v9.564c0 .624.482 1.13 1.077 1.13h10.94c.594 0 1.078-.506 1.078-1.13v-9.564c0-.624-.484-1.13-1.078-1.13M205.191 183.567h-10.94c-.595 0-1.078.506-1.078 1.13v9.564c0 .624.483 1.13 1.077 1.13h10.941c.595 0 1.077-.506 1.077-1.13v-9.564c0-.624-.482-1.13-1.077-1.13M239.683 183.567H211.496c-.594 0-1.077.506-1.077 1.13v9.564c0 .624.483 1.13 1.077 1.13H239.683c.595 0 1.078-.506 1.078-1.13v-9.564c0-.624-.483-1.13-1.078-1.13M92.984 199.787h-10.94c-.595 0-1.078.506-1.078 1.13v9.564c0 .624.483 1.13 1.077 1.13h10.941c.594 0 1.077-.506 1.077-1.13v-9.564c0-.624-.483-1.13-1.077-1.13M110.23 199.787H99.29c-.596 0-1.077.506-1.077 1.13v9.564c0 .624.481 1.13 1.077 1.13h10.94c.595 0 1.078-.506 1.078-1.13v-9.564c0-.624-.483-1.13-1.077-1.13M127.477 199.787h-10.942c-.593 0-1.076.506-1.076 1.13v9.564c0 .624.483 1.13 1.076 1.13h10.942c.593 0 1.076-.506 1.076-1.13v-9.564c0-.624-.483-1.13-1.077-1.13M144.723 199.787h-10.941c-.594 0-1.077.506-1.077 1.13v9.564c0 .624.483 1.13 1.077 1.13h10.94c.595 0 1.078-.506 1.078-1.13v-9.564c0-.624-.483-1.13-1.077-1.13M161.97 199.787h-10.942c-.594 0-1.077.506-1.077 1.13v9.564c0 .624.483 1.13 1.077 1.13h10.941c.594 0 1.077-.506 1.077-1.13v-9.564c0-.624-.483-1.13-1.077-1.13M179.215 199.787h-10.94c-.595 0-1.078.506-1.078 1.13v9.564c0 .624.483 1.13 1.077 1.13h10.941c.594 0 1.077-.506 1.077-1.13v-9.564c0-.624-.483-1.13-1.077-1.13M196.504 199.787h-10.941c-.594 0-1.077.506-1.077 1.13v9.564c0 .624.483 1.13 1.077 1.13h10.94c.595 0 1.078-.506 1.078-1.13v-9.564c0-.624-.483-1.13-1.077-1.13M239.683 199.787h-36.138c-.495 0-.894.42-.894.939v9.946c0 .519.399.94.894.94h36.138c.594 0 1.078-.507 1.078-1.131v-9.564c0-.624-.484-1.13-1.078-1.13M74.991 199.787H38.853c-.495 0-.895.42-.895.939v9.946c0 .519.4.94.895.94h36.138c.596 0 1.077-.507 1.077-1.131v-9.564c0-.624-.481-1.13-1.077-1.13M49.976 216.075H39.035c-.594 0-1.077.506-1.077 1.13v11.81c0 .624.483 1.13 1.077 1.13h10.941c.594 0 1.077-.506 1.077-1.13v-11.81c0-.624-.483-1.13-1.077-1.13M67.222 216.075h-10.94c-.595 0-1.078.506-1.078 1.13v11.81c0 .624.483 1.13 1.077 1.13h10.941c.594 0 1.077-.506 1.077-1.13v-11.81c0-.624-.483-1.13-1.077-1.13M84.468 216.075h-10.94c-.595 0-1.078.506-1.078 1.13v11.81c0 .624.483 1.13 1.078 1.13h10.94c.594 0 1.077-.506 1.077-1.13v-11.81c0-.624-.483-1.13-1.077-1.13M101.714 216.075h-10.94c-.595 0-1.078.506-1.078 1.13v11.81c0 .624.483 1.13 1.077 1.13h10.941c.594 0 1.077-.506 1.077-1.13v-11.81c0-.624-.483-1.13-1.077-1.13"/>
        <path fill="#ACC952" d="M170.699 216.075H108.02c-.596 0-1.077.506-1.077 1.13v11.81c0 .624.481 1.13 1.077 1.13h62.679c.594 0 1.077-.506 1.077-1.13v-11.81c0-.624-.483-1.13-1.077-1.13" opacity=".469"/>
        <path fill="#DEDEDE" d="M187.945 216.075h-10.94c-.595 0-1.077.506-1.077 1.13v11.81c0 .624.482 1.13 1.077 1.13h10.94c.594 0 1.078-.506 1.078-1.13v-11.81c0-.624-.484-1.13-1.078-1.13M205.191 216.075h-10.94c-.595 0-1.078.506-1.078 1.13v11.81c0 .624.483 1.13 1.077 1.13h10.941c.595 0 1.077-.506 1.077-1.13v-11.81c0-.624-.482-1.13-1.077-1.13M222.437 216.075h-10.94c-.595 0-1.078.506-1.078 1.13v11.81c0 .624.483 1.13 1.077 1.13h10.941c.594 0 1.077-.506 1.077-1.13v-11.81c0-.624-.483-1.13-1.077-1.13M239.683 216.075h-10.94c-.595 0-1.078.506-1.078 1.13v11.81c0 .624.483 1.13 1.078 1.13h10.94c.594 0 1.078-.506 1.078-1.13v-11.81c0-.624-.484-1.13-1.078-1.13"/>
        <path stroke="#128BDD" stroke-linecap="square" d="M107.5 31.5L174 20M80.5 48.5l22 32.5M128 96l34.5 11.5M200.5 32l-9 64"/>
        <path fill="#EAEFF5" stroke="#128BDD" stroke-width=".96" d="M166.04 92.52h46.92a3.52 3.52 0 0 1 3.52 3.52v23.92a3.52 3.52 0 0 1-3.52 3.52h-46.92a3.52 3.52 0 0 1-3.52-3.52V96.04a3.52 3.52 0 0 1 3.52-3.52zM177.04 4.52h46.92a3.52 3.52 0 0 1 3.52 3.52v23.92a3.52 3.52 0 0 1-3.52 3.52h-46.92a3.52 3.52 0 0 1-3.52-3.52V8.04a3.52 3.52 0 0 1 3.52-3.52zM77.04 80.52h46.92a3.52 3.52 0 0 1 3.52 3.52v23.92a3.52 3.52 0 0 1-3.52 3.52H77.04a3.52 3.52 0 0 1-3.52-3.52V84.04a3.52 3.52 0 0 1 3.52-3.52zM57.04 17.52h46.92a3.52 3.52 0 0 1 3.52 3.52v23.92a3.52 3.52 0 0 1-3.52 3.52H57.04a3.52 3.52 0 0 1-3.52-3.52V21.04a3.52 3.52 0 0 1 3.52-3.52z"/>
        <text fill="#6C7B8B" font-family="ico_stratio" font-size="13" transform="matrix(-1 0 0 1 325 0)">
            <tspan x="156" y="68"></tspan>
        </text>
        <text fill="#6C7B8B" font-family="ico_stratio" font-size="13">
            <tspan x="119" y="68"></tspan>
        </text>
        <text fill="#6C7B8B" font-family="ico_stratio" font-size="13" transform="matrix(1 0 0 -1 0 161)">
            <tspan x="138" y="86"></tspan>
        </text>
        <text fill="#6C7B8B" font-family="ico_stratio" font-size="13">
            <tspan x="138" y="47"></tspan>
        </text>
        <text fill="#6C7B8B" font-family="ico_stratio" font-size="20">
            <tspan x="134" y="70"></tspan>
        </text>
    </g>
</svg>
