<svg xmlns="http://www.w3.org/2000/svg" width="38" height="37" viewBox="0 0 38 37">
    <g fill="#B5B5B5" fill-rule="evenodd">
        <path fill-rule="nonzero" d="M34.84 9.254A18.37 18.37 0 0 0 23.612.638 18.37 18.37 0 0 0 9.58 2.486 18.37 18.37 0 0 0 .964 13.714 18.371 18.371 0 0 0 2.81 27.746a18.37 18.37 0 0 0 11.229 8.616 18.384 18.384 0 0 0 14.032-1.847 18.37 18.37 0 0 0 8.616-11.229A18.371 18.371 0 0 0 34.84 9.254zm-.013 13.534a16.458 16.458 0 0 1-7.718 10.059 16.458 16.458 0 0 1-12.571 1.655 16.458 16.458 0 0 1-10.06-7.719 16.458 16.458 0 0 1-1.654-12.57 16.458 16.458 0 0 1 7.719-10.06 16.469 16.469 0 0 1 12.57-1.655 16.458 16.458 0 0 1 10.06 7.719 16.458 16.458 0 0 1 1.654 12.57z"/>
        <path fill-rule="nonzero" d="M30.193 9.715a14.522 14.522 0 0 0-9.445-5.453.963.963 0 0 0-.26 1.908 12.58 12.58 0 0 1 8.183 4.724.961.961 0 0 0 1.35.172.963.963 0 0 0 .172-1.35z"/>
        <path d="M18.591 23c.736 0 1.36.233 1.872.698.512.466.767 1.034.767 1.703 0 .67-.255 1.237-.767 1.703-.512.465-1.136.698-1.872.698a2.619 2.619 0 0 1-1.823-.698C16.256 26.638 16 26.07 16 25.4c0-.67.256-1.237.768-1.703A2.619 2.619 0 0 1 18.59 23zM19.887 19.779a1.007 1.007 0 0 1-.432.72c-.256.19-.544.284-.864.284-.32 0-.6-.095-.84-.284a1.23 1.23 0 0 1-.455-.72L16 12.794V12.4c0-.67.256-1.237.768-1.703A2.619 2.619 0 0 1 18.59 10c.736 0 1.36.233 1.872.698.512.466.767 1.034.767 1.703v.196a.401.401 0 0 1-.048.197l-1.295 6.985z"/>
    </g>
</svg>
