<svg xmlns="http://www.w3.org/2000/svg" width="48" height="48" viewBox="0 0 48 48">
    <g fill="none" fill-rule="evenodd">
        <rect width="48" height="48" fill="#3DC9FC" rx="8"/>
        <svg viewBox="-145 -40 1313 906">
            <path fill="#f8f8f9" d="M980.696 439.589c-3.527 55.522-27.623 104.819-64.674 140.869-40.194 39.136-95.095 63.243-155.626 63.243s-115.433-24.107-155.626-63.243l-45.272-44.551 2.739-2.679 57.619-56.219 43.771 43.003c25.014 24.238 59.162 39.179 96.799 39.179s71.785-14.94 96.836-39.214c20.010-19.47 33.772-45.344 37.977-74.313l0.083-37.728c-4.333-29.59-18.092-55.38-38.080-74.793-25.047-24.273-59.197-39.216-96.838-39.216s-71.791 14.943-96.843 39.221l-252.325 247.103c-40.145 39.089-95.046 63.196-155.577 63.196s-115.433-24.107-155.626-63.243c-40.001-38.963-64.846-93.415-64.846-153.67s24.844-114.708 64.848-153.673c40.191-39.134 95.092-63.241 155.624-63.241s115.433 24.107 155.626 63.243l45.347 44.476-2.739 2.694-57.529 56.219-43.666-42.883c-25.014-24.238-59.162-39.179-96.799-39.179s-71.785 14.94-96.836 39.214c-24.3 23.677-39.396 56.772-39.396 93.392s15.096 69.715 39.405 93.4c25.042 24.266 59.19 39.206 96.827 39.206s71.785-14.94 96.836-39.214l252.355-247.103c40.057-39.285 94.985-63.531 155.577-63.531s115.52 24.246 155.613 63.566c36.903 35.894 60.898 84.964 64.385 139.61 0.303 5.14 0.468 9.656 0.468 14.171-0.015 4.275-0.166 8.489-0.437 12.689z"/>
        </svg>
    </g>
</svg>
