<svg xmlns="http://www.w3.org/2000/svg" width="48" height="48" viewBox="0 0 48 48">
    <g fill="none" fill-rule="evenodd">
        <rect width="48" height="48" fill="#FDBD2B" rx="8"/>
        <svg viewBox="-145 -40 1313 906">
           <path fill="#fff" d="M170.674 469.317c23.527-0.043 42.582-19.125 42.582-42.657 0-23.559-19.098-42.657-42.657-42.657s-42.657 19.098-42.657 42.657c0.026 23.549 19.109 42.632 42.655 42.657zM170.599 554.661c-70.66 0-127.942-57.281-127.942-127.942s57.281-127.942 127.942-127.942c70.66 0 127.942 57.281 127.942 127.942s-57.281 127.942-127.942 127.942zM853.341 469.317c23.559 0 42.657-19.098 42.657-42.657s-19.098-42.657-42.657-42.657c-23.559 0-42.657 19.098-42.657 42.657 0.026 23.549 19.109 42.632 42.655 42.657zM853.341 554.661c-70.66 0-127.942-57.281-127.942-127.942s57.281-127.942 127.942-127.942c70.66 0 127.942 57.281 127.942 127.942s-57.281 127.942-127.942 127.942zM725.339 469.332h-428.228c-23.22-0.45-41.871-19.379-41.871-42.665s18.651-42.215 41.829-42.664l428.27-0.001c23.22 0.45 41.871 19.379 41.871 42.665s-18.651 42.215-41.829 42.664z"></path>
        </svg>
    </g>
</svg>
