<?xml version="1.0" encoding="UTF-8"?>
<svg width="20px" height="20px" viewBox="0 0 20 20" version="1.1" xmlns="http://www.w3.org/2000/svg" xmlns:xlink="http://www.w3.org/1999/xlink">
    <!-- Generator: Sketch 58 (84663) - https://sketch.com -->
    <title>icon/execution/qr</title>
    <desc>Created with Sketch.</desc>
    <g id="icon/execution/qr" stroke="none" stroke-width="1" fill="none" fill-rule="evenodd">
        <g id="execution-icon" fill="#37B5E4">
            <g id="Group" transform="translate(10.000000, 10.000000) scale(-1, 1) translate(-10.000000, -10.000000) ">
                <path d="M4,0 L16,0 C18.209139,-4.05812251e-16 20,1.790861 20,4 L20,16 C20,18.209139 18.209139,20 16,20 L4,20 C1.790861,20 2.705415e-16,18.209139 0,16 L0,4 C-2.705415e-16,1.790861 1.790861,4.05812251e-16 4,0 Z" id="Rectangle-4"></path>
            </g>
        </g>
        <path d="M12,12.046875 L12,15.3125 L10,14.109375 L8,15.3125 L8,12.046875 C7.73958203,11.9218744 7.50000109,11.7812508 7.28125,11.625 C7.06249891,11.4687492 6.85937594,11.2916677 6.671875,11.09375 L6.671875,17.671875 L10,15.671875 L13.328125,17.671875 L13.328125,11.09375 C13.1406241,11.2916677 12.9375011,11.4687492 12.71875,11.625 C12.5729159,11.7291672 12.4224538,11.8240742 12.2673614,11.9097221 L12,12.046875 Z M10,2.328125 C9.35416344,2.328125 8.75000281,2.45312375 8.1875,2.703125 C7.61458047,2.94270953 7.11718961,3.27343539 6.6953125,3.6953125 C6.27343539,4.11718961 5.94270953,4.61458047 5.703125,5.1875 C5.45312375,5.75000281 5.328125,6.35416344 5.328125,7 C5.33854172,7.64583656 5.46354047,8.24999719 5.703125,8.8125 C5.95312625,9.37500281 6.28906039,9.86458125 6.7109375,10.28125 C7.13281461,10.6979187 7.62499719,11.0260405 8.1875,11.265625 C8.75000281,11.5156263 9.35416344,11.640625 10,11.640625 C10.6458366,11.640625 11.2499972,11.5156263 11.8125,11.265625 C12.3750028,11.0260405 12.8671854,10.6979187 13.2890625,10.28125 C13.7109396,9.86458125 14.0468737,9.37500281 14.296875,8.8125 C14.5364595,8.24999719 14.6614583,7.64583656 14.671875,7 C14.671875,6.35416344 14.5468763,5.75000281 14.296875,5.1875 C14.0572905,4.61458047 13.7265646,4.11718961 13.3046875,3.6953125 C12.8828104,3.27343539 12.3854195,2.94270953 11.8125,2.703125 C11.2499972,2.45312375 10.6458366,2.328125 10,2.328125 Z M10,10.328125 C9.54166437,10.328125 9.10937703,10.2447925 8.703125,10.078125 C8.29687297,9.90104078 7.94270984,9.66145984 7.640625,9.359375 C7.33854016,9.05729016 7.09895922,8.70312703 6.921875,8.296875 C6.7552075,7.89062297 6.671875,7.45833563 6.671875,7 C6.671875,6.54166437 6.7552075,6.10937703 6.921875,5.703125 C7.09895922,5.29687297 7.33854016,4.94270984 7.640625,4.640625 C7.94270984,4.33854016 8.29687297,4.09895922 8.703125,3.921875 C9.10937703,3.7552075 9.54166437,3.671875 10,3.671875 C10.4583356,3.671875 10.890623,3.7552075 11.296875,3.921875 C11.703127,4.09895922 12.0572902,4.33854016 12.359375,4.640625 C12.6614598,4.94270984 12.9010408,5.29687297 13.078125,5.703125 C13.2447925,6.10937703 13.328125,6.54166437 13.328125,7 C13.328125,7.45833563 13.2421884,7.89062297 13.0703125,8.296875 C12.8984366,8.70312703 12.6614598,9.05729016 12.359375,9.359375 C12.0572902,9.66145984 11.7057312,9.89843664 11.3046875,10.0703125 C10.9704844,10.2135424 10.6163928,10.2970923 10.2424052,10.3209636 L10,10.328125 Z" id="î¥" fill="#F8F8F9" fill-rule="nonzero"></path>
    </g>
</svg>