<svg xmlns="http://www.w3.org/2000/svg" width="89" height="89" viewBox="0 0 89 89">
    <g fill="none" fill-rule="nonzero">
        <path fill="#000" d="M45 22c-12.683 0-23 10.317-23 23s10.317 23 23 23 23-10.317 23-23-10.317-23-23-23zm0 42.714c-10.87 0-19.714-8.843-19.714-19.714 0-10.87 8.843-19.714 19.714-19.714 10.87 0 19.714 8.843 19.714 19.714 0 10.87-8.843 19.714-19.714 19.714z"/>
        <path fill="#000" d="M84.417 34.61H81.09a37.563 37.563 0 0 0-3.725-8.993l2.35-2.35a4.554 4.554 0 0 0 1.342-3.24 4.558 4.558 0 0 0-1.342-3.243l-7.504-7.503c-1.73-1.73-4.748-1.733-6.482 0l-2.35 2.35a37.67 37.67 0 0 0-8.992-3.723V4.582A4.587 4.587 0 0 0 49.806 0H39.192a4.587 4.587 0 0 0-4.582 4.582v3.326a37.647 37.647 0 0 0-8.993 3.724l-2.35-2.35c-1.733-1.734-4.752-1.73-6.483 0l-7.503 7.504a4.555 4.555 0 0 0-1.342 3.242c0 1.223.476 2.373 1.342 3.24l2.35 2.35a37.519 37.519 0 0 0-3.723 8.992H4.582A4.587 4.587 0 0 0 0 39.192v10.612a4.587 4.587 0 0 0 4.582 4.584h3.326a37.647 37.647 0 0 0 3.724 8.994l-2.35 2.35a4.554 4.554 0 0 0-1.341 3.24c0 1.225.476 2.375 1.341 3.242l7.504 7.504c1.73 1.732 4.75 1.734 6.482 0l2.35-2.35a37.714 37.714 0 0 0 8.994 3.724v3.326A4.587 4.587 0 0 0 39.194 89h10.612a4.587 4.587 0 0 0 4.582-4.582v-3.326a37.647 37.647 0 0 0 8.994-3.724l2.35 2.35c1.734 1.734 4.75 1.73 6.482 0l7.504-7.504a4.555 4.555 0 0 0 1.341-3.242 4.557 4.557 0 0 0-1.341-3.24l-2.35-2.35a37.714 37.714 0 0 0 3.724-8.994h3.326A4.587 4.587 0 0 0 89 49.806V39.192a4.59 4.59 0 0 0-4.583-4.582zm1.285 15.196c0 .709-.577 1.286-1.285 1.286h-5.92l-.297 1.274a34.421 34.421 0 0 1-4.307 10.4l-.692 1.112 4.185 4.184a1.286 1.286 0 0 1 0 1.82l-7.504 7.504a1.286 1.286 0 0 1-1.82 0L63.878 73.2l-1.111.692c-3.214 2.001-6.713 3.45-10.401 4.307l-1.274.297v5.92c0 .708-.577 1.285-1.286 1.285H39.192a1.287 1.287 0 0 1-1.285-1.285v-5.92l-1.274-.297a34.421 34.421 0 0 1-10.402-4.307l-1.11-.692-4.185 4.185a1.286 1.286 0 0 1-1.82 0l-7.503-7.504a1.286 1.286 0 0 1 0-1.82l4.184-4.184-.692-1.111c-2-3.214-3.45-6.713-4.307-10.401l-.296-1.274h-5.92a1.287 1.287 0 0 1-1.286-1.286V39.192c0-.708.577-1.285 1.286-1.285h5.92l.296-1.274a34.387 34.387 0 0 1 4.307-10.402l.692-1.11-4.184-4.185a1.286 1.286 0 0 1 0-1.82l7.504-7.503a1.286 1.286 0 0 1 1.819 0l4.185 4.184 1.11-.692c3.214-2 6.713-3.45 10.402-4.307l1.274-.296v-5.92c0-.709.577-1.286 1.285-1.286h10.612c.71 0 1.288.577 1.288 1.286v5.92l1.274.296a34.421 34.421 0 0 1 10.4 4.307l1.112.692 4.184-4.184a1.286 1.286 0 0 1 1.82 0l7.504 7.504a1.286 1.286 0 0 1 0 1.819L73.2 25.121l.692 1.11A34.31 34.31 0 0 1 78.2 36.633l.297 1.274h5.92c.708 0 1.285.577 1.285 1.285v10.614z"/>
        <path fill="#128BDD" d="M45 29c-8.822 0-16 7.178-16 16s7.178 16 16 16 16-7.178 16-16-7.178-16-16-16zm0 28.746c-7.028 0-12.746-5.718-12.746-12.746 0-7.028 5.718-12.746 12.746-12.746 7.028 0 12.746 5.718 12.746 12.746 0 7.028-5.718 12.746-12.746 12.746z"/>
    </g>
</svg>
