<svg xmlns="http://www.w3.org/2000/svg" width="72" height="55" viewBox="0 0 72 55">
    <g fill="none" fill-rule="evenodd">
        <path fill="#052941" fill-rule="nonzero" d="M64.8 0H7.2C3.24 0 0 3.257 0 7.237v40.526C0 51.743 3.24 55 7.2 55h57.6c3.96 0 7.2-3.257 7.2-7.237V7.237C72 3.257 68.76 0 64.8 0zM46.08 52.105H7.2c-2.376 0-4.32-1.954-4.32-4.342V7.237c0-2.388 1.944-4.342 4.32-4.342h38.88v49.21zm23.04-4.342c0 2.388-1.944 4.342-4.32 4.342H48.96V2.895H64.8c2.376 0 4.32 1.954 4.32 4.342v40.526z"/>
        <path fill="#32D0BC" fill-rule="nonzero" d="M62.073 11.957h-5.346c-.84 0-1.527.538-1.527 1.195 0 .658.687 1.196 1.527 1.196h5.346c.84 0 1.527-.538 1.527-1.196 0-.657-.687-1.195-1.527-1.195z"/>
        <path fill="#052941" fill-rule="nonzero" d="M62.073 19.13h-5.346c-.84 0-1.527.538-1.527 1.196 0 .658.687 1.196 1.527 1.196h5.346c.84 0 1.527-.538 1.527-1.196 0-.658-.687-1.196-1.527-1.196zM62.073 26.304h-5.346c-.84 0-1.527.538-1.527 1.196 0 .658.687 1.196 1.527 1.196h5.346c.84 0 1.527-.538 1.527-1.196 0-.658-.687-1.196-1.527-1.196z"/>
        <text fill="#052941" font-family="NunitoSans-ExtraBold, Nunito Sans" font-size="16" font-weight="600">
            <tspan x="8.416" y="41">{…}</tspan>
        </text>
    </g>
</svg>
