<svg xmlns="http://www.w3.org/2000/svg" width="285" height="261" viewBox="0 0 285 261">
    <g fill="none" fill-rule="evenodd">
        <path fill="#AAB7C4" d="M181.282 59.749a6.272 6.272 0 0 0 7.078-.11l44.443-31.207a6.012 6.012 0 0 1 8.423 1.578c1.88 2.8 1.203 6.618-1.554 8.552L205.28 62.667c-3.033 2.138-3.81 6.363-1.705 9.443 2.106 3.08 6.267 3.87 9.3 1.731l8.698-6.083a6.012 6.012 0 0 1 8.423 1.578c1.88 2.8 1.203 6.618-1.554 8.552l-12.985 9.113c-3.033 2.138-3.81 6.363-1.705 9.443l.351.535c2.106 3.08 6.267 3.869 9.3 1.73l49.683-34.82a6.012 6.012 0 0 1 8.422 1.578 6.195 6.195 0 0 1-1.579 8.578l-41.05 28.771c.15.15.289.318.414.5 1.053 1.579.677 3.717-.877 4.811l-10.528 7.382c-1.63 1.145-2.03 3.41-.903 5.065a3.548 3.548 0 0 0 4.988.917l24.992-17.513a3.384 3.384 0 0 1 4.738.891c1.053 1.578.677 3.717-.878 4.811l-19.351 13.567c-1.705 1.196-2.13 3.589-.953 5.32a3.739 3.739 0 0 0 5.24.967l4.887-3.436a3.384 3.384 0 0 1 4.738.89c1.053 1.579.677 3.717-.877 4.811l-7.32 5.117c-1.705 1.196-2.13 3.589-.953 5.32l.201.305a3.739 3.739 0 0 0 5.239.967l27.95-19.6a3.384 3.384 0 0 1 4.737.892 3.529 3.529 0 0 1-.852 4.836L113.006 249.14a3.384 3.384 0 0 1-4.738-.89c-1.052-1.58-.676-3.717.878-4.812l4.687-3.283c1.705-1.197 2.131-3.59.953-5.32l-.2-.305a3.739 3.739 0 0 0-5.24-.968l-38.151 26.752a3.384 3.384 0 0 1-4.738-.89c-1.053-1.579-.677-3.717.877-4.811l74.248-52.028c1.705-1.196 2.131-3.589.953-5.32a3.739 3.739 0 0 0-5.24-.967l-26.144 18.327a3.384 3.384 0 0 1-4.738-.891c-1.052-1.578-.676-3.716.878-4.81l7.946-5.575c1.63-1.146 2.03-3.411.902-5.066a3.548 3.548 0 0 0-4.988-.916l-22.41 15.705a3.384 3.384 0 0 1-4.737-.89c-1.053-1.579-.677-3.717.877-4.812l9.199-6.45a6.045 6.045 0 0 1-2.704-2.204c-1.88-2.8-1.203-6.618 1.554-8.552l8.347-5.855c3.034-2.138 3.81-6.363 1.705-9.443l-.35-.535c-2.107-3.08-6.268-3.868-9.3-1.73L25.5 220.149a6.012 6.012 0 0 1-8.422-1.578c-1.88-2.8-1.203-6.618 1.554-8.552l131.977-92.5c3.033-2.137 3.81-6.363 1.705-9.443-2.106-3.08-6.267-3.868-9.3-1.73l-46.474 32.58a6.012 6.012 0 0 1-8.423-1.578c-1.88-2.8-1.203-6.618 1.555-8.552l14.112-9.902c2.196-1.518 3.148-4.184 2.619-6.67l-38.066 26.677a4.743 4.743 0 0 1-6.643-1.247 4.928 4.928 0 0 1-.464-4.628l-4.496 3.151a6.012 6.012 0 0 1-8.423-1.578 6.255 6.255 0 0 1-.054-6.89l-3.709 2.64a4.743 4.743 0 0 1-6.642-1.248c-1.48-2.189-.953-5.218 1.228-6.745l69.36-48.82c2.406-1.68 3.008-5.015 1.354-7.458a5.226 5.226 0 0 0-7.345-1.375L65.78 90.437a4.743 4.743 0 0 1-6.643-1.247c-1.479-2.19-.952-5.218 1.229-6.745l11.18-7.815c2.28-1.603 2.857-4.785 1.278-7.101-1.58-2.317-4.713-2.902-6.994-1.298L34.371 88.273a4.743 4.743 0 0 1-6.642-1.247c-1.48-2.189-.953-5.218 1.228-6.745L142.008 1.044a4.743 4.743 0 0 1 6.643 1.247c1.48 2.189.953 5.218-1.228 6.745l-14.79 10.36c-2.28 1.603-2.857 4.785-1.278 7.101 1.58 2.317 4.713 2.902 6.994 1.298l35.093-24.588a4.743 4.743 0 0 1 6.643 1.247c1.479 2.19.953 5.218-1.228 6.746l-27.098 19.014c-2.406 1.68-3.008 5.014-1.353 7.457a5.226 5.226 0 0 0 7.344 1.375l6.869-4.81a4.743 4.743 0 0 1 6.642 1.246 4.932 4.932 0 0 1 .015 5.475l21.721-15.223a6.012 6.012 0 0 1 8.423 1.578 6.259 6.259 0 0 1 .415 6.259l3.442-2.416a4.743 4.743 0 0 1 6.643 1.248 4.88 4.88 0 0 1-1.278 6.77l-29.36 20.576z" opacity=".301"/>
        <g transform="translate(0 3)">
            <g transform="translate(0 36)">
                <ellipse cx="138.091" cy="77.025" fill="#128BDD" rx="75.795" ry="76.898"/>
                <path fill="#08619D" d="M113.529 149.8h-.05a74.662 74.662 0 0 0 26.218 4.124c33.243-.713 61.042-23.037 70.601-53.48l-90.246 1.934h-.15l-37.158.79c-2.032.05-3.663 1.756-3.612 3.817.05 2.062 1.73 3.717 3.763 3.666l29.48-.636c2.133-.051 3.914 1.68 3.964 3.843.05 2.164-1.656 3.971-3.788 4.022l-10.463.23c-2.032.05-3.663 1.755-3.613 3.817.05 2.062 1.732 3.717 3.764 3.666l58.257-1.248c2.258-.05 4.115 1.757 4.165 4.048.05 2.29-1.731 4.174-3.99 4.225l-73.285 1.578c2.91 2.673 6.047 5.091 9.333 7.28l16.61-.356c2.257-.05 4.114 1.756 4.164 4.047v.382c.075 2.291-1.731 4.2-3.964 4.251z"/>
                <path fill="#0979C4" d="M210.298 100.444c2.484-7.866 3.739-16.291 3.563-25.022-.226-10.564-2.534-20.593-6.523-29.655l-64.505 1.4c-1.957.128-3.512 1.808-3.462 3.818.05 2.062 1.731 3.717 3.763 3.666l29.48-.636c2.133-.051 3.914 1.68 3.964 3.843.05 2.164-1.656 3.971-3.788 4.022l-10.462.23c-2.033.05-3.663 1.755-3.613 3.817.05 2.062 1.731 3.717 3.763 3.666l34.423-.738c2.258-.051 4.114 1.756 4.165 4.047.05 2.29-1.732 4.174-3.99 4.225L99.354 79.19c-2.033.051-3.663 1.756-3.613 3.818.05 2.062 1.73 3.717 3.763 3.666l50.229-1.07c2.258-.05 4.114 1.757 4.165 4.048v.382c.05 2.29-1.731 4.174-3.99 4.225l-6.171.127c-2.033.051-3.664 1.757-3.613 3.819.05 2.01 1.656 3.614 3.613 3.665h.15l66.411-1.425z"/>
                <path fill="#2D9CE7" d="M152.141 15.018l29.882-.636a74.027 74.027 0 0 0-16.333-8.96c-.678 1.12-1.857 1.883-3.237 1.909l-10.462.229c-2.032.05-3.663 1.756-3.613 3.818.025 2.037 1.706 3.691 3.763 3.64zM189.876 20.898a4.132 4.132 0 0 1-3.162 1.655l-97.722 2.112c-2.033.051-3.663 1.757-3.613 3.819.05 2.061 1.731 3.716 3.763 3.665l50.229-1.069c2.258-.05 4.115 1.756 4.165 4.047v.382c.05 2.291-1.731 4.175-3.99 4.226l-6.171.127c-2.033.05-3.663 1.756-3.613 3.818.05 2.062 1.73 3.716 3.763 3.665l9.283-.203 64.505-1.4a76.257 76.257 0 0 0-17.437-24.844z"/>
                <path fill="#0979C4" d="M280.649 44.8c-3.739-15.527-37.71-21.356-84.275-16.902a75.406 75.406 0 0 1 4.14 5.55c33.87-2.597 57.605 1.476 60.164 12.141 4.064 16.876-46.39 43.884-112.676 60.302s-123.314 16.062-127.379-.815c-2.408-10.003 14.301-23.545 42.1-36.323.251-2.495.653-4.938 1.13-7.331C22.705 78.884-3.062 99.196.576 114.24c5.344 22.17 72.358 24.615 149.708 5.447 77.35-19.167 135.708-52.716 130.364-74.887z"/>
                <path fill="#2D9CE7" d="M10.939 109.658c5.018 20.695 66.888 22.782 138.192 4.658 71.303-18.123 125.045-49.585 120.027-70.254-3.362-13.898-32.365-19.397-72.659-16.037a76.676 76.676 0 0 1 4.015 5.397c33.87-2.597 57.605 1.476 60.164 12.142 4.064 16.876-46.39 43.883-112.676 60.301-66.286 16.419-123.314 16.062-127.379-.814-2.408-10.004 14.301-23.546 42.1-36.324.226-2.062.527-4.098.903-6.109C28.953 78.451 7.702 96.32 10.94 109.658z"/>
            </g>
            <circle cx="128" cy="25" r="1" fill="#FFF"/>
            <circle cx="230" cy="97" r="1" fill="#FFF"/>
            <circle cx="215" cy="163" r="1" fill="#FFF"/>
            <circle cx="130" cy="212" r="1" fill="#FFF"/>
            <circle cx="186" cy="188" r="1" fill="#FFF"/>
            <circle cx="92" cy="192" r="1" fill="#FFF"/>
            <circle cx="43" cy="127" r="1" fill="#FFF"/>
            <circle cx="49" cy="76" r="1" fill="#FFF"/>
            <g transform="translate(203 36)">
                <circle cx="7.449" cy="7.5" r="7.398" fill="#E88F00"/>
                <path fill="#FF9D00" d="M11.11 4.297A7.271 7.271 0 0 0 10.12.61 7.622 7.622 0 0 0 7.475.127C3.407.127.076 3.432.076 7.525c0 1.348.356 2.594.992 3.687a7.622 7.622 0 0 0 2.644.483c4.068-.026 7.398-3.33 7.398-7.398z"/>
            </g>
            <g transform="translate(59 181)">
                <circle cx="6.5" cy="6.5" r="6.37" fill="#E34D00"/>
                <path fill="#FF6500" d="M9.62 3.744A6.299 6.299 0 0 0 8.762.572C8.06.286 7.28.156 6.474.156a6.38 6.38 0 0 0-6.37 6.37c0 1.144.312 2.236.858 3.172.702.286 1.482.416 2.288.416 3.536 0 6.37-2.86 6.37-6.37z"/>
            </g>
            <g transform="translate(220 100)">
                <circle cx="4.474" cy="4.5" r="4.341" fill="#E34D00"/>
                <path fill="#FF6500" d="M6.618 2.62c0-.794-.212-1.535-.583-2.17a4.344 4.344 0 0 0-5.32 6.22 4.312 4.312 0 0 0 1.561.292c2.383 0 4.342-1.96 4.342-4.341z"/>
            </g>
            <g transform="translate(204 184)">
                <ellipse cx="4.553" cy="4" fill="#E34D00" rx="4.341" ry="3.976"/>
                <path fill="#FF6500" d="M6.697 2.279A3.68 3.68 0 0 0 6.115.29 4.663 4.663 0 0 0 4.553.024C2.17.024.212 1.794.212 4c0 .727.212 1.406.582 1.988.477.17 1.006.267 1.562.267 2.409 0 4.341-1.794 4.341-3.976z"/>
            </g>
            <g transform="translate(42 89)">
                <circle cx="3.422" cy="3.604" r="3.37" fill="#E88F00"/>
                <path fill="#FF9D00" d="M5.056 2.126c0-.622-.156-1.193-.441-1.685A3.094 3.094 0 0 0 3.396.207a3.364 3.364 0 0 0-3.37 3.37c0 .623.155 1.193.44 1.686.364.156.778.233 1.22.233a3.364 3.364 0 0 0 3.37-3.37z"/>
            </g>
            <g transform="translate(60 49)">
                <circle cx="6.5" cy="6.5" r="6.475" fill="#00A5E6"/>
                <path fill="#00B7FF" d="M9.675 3.675A6.666 6.666 0 0 0 8.825.45 6.507 6.507 0 0 0 6.5.025 6.476 6.476 0 0 0 .025 6.5c0 1.175.325 2.275.85 3.225.725.275 1.5.425 2.325.425 3.575 0 6.475-2.9 6.475-6.475z"/>
            </g>
            <g transform="translate(158)">
                <ellipse cx="6.549" cy="6.5" fill="#00A5E6" rx="6.353" ry="6.475"/>
                <path fill="#00B7FF" d="M9.664 3.7A6.766 6.766 0 0 0 8.83.475 6.278 6.278 0 0 0 6.55.05C3.041.05.195 2.95.195 6.525c0 1.175.32 2.275.834 3.225a6.278 6.278 0 0 0 2.281.425C6.82 10.15 9.664 7.25 9.664 3.7z"/>
            </g>
            <g transform="translate(243 155)">
                <circle cx="4.451" cy="4.573" r="4.378" fill="#00A5E6"/>
                <path fill="#00B7FF" d="M6.616 2.676c0-.803-.219-1.533-.584-2.19a4.248 4.248 0 0 0-1.58-.291A4.376 4.376 0 0 0 .072 4.573c0 .803.219 1.532.584 2.19a4.248 4.248 0 0 0 1.58.291c2.409-.024 4.38-1.97 4.38-4.378z"/>
            </g>
            <path fill="#FFF" d="M189 19l.368 2.643 2.632.344-2.632.37L189 25l-.342-2.643-2.658-.37 2.658-.344zM261.488 120l.545 3.967 3.967.52-3.967.546-.545 3.967-.521-3.967-3.967-.545 3.967-.521zM66.012 32l.24 1.749 1.748.239-1.749.24L66.012 36l-.24-1.772-1.772-.24 1.772-.24zM31.512 175l.393 3.081L35 178.5l-3.095.419-.393 3.081-.417-3.081L28 178.5l3.095-.419zM164.5 192l.53 3.97 3.97.53-3.97.53-.53 3.97-.53-3.97-3.97-.53 3.97-.53zM96 24l.478 3.522L100 28l-3.522.478L96 32l-.478-3.522L92 28l3.522-.478zM134.512 4l.279 2.21 2.209.302-2.21.279L134.513 9l-.303-2.21L132 6.513l2.21-.303zM90.989 217l.248 2.203 1.763.311-1.763.283L90.99 222l-.226-2.203-1.763-.283 1.763-.31z"/>
        </g>
    </g>
</svg>
