<svg xmlns="http://www.w3.org/2000/svg" width="128" height="59" viewBox="0 0 128 59">
    <g fill="none" fill-rule="nonzero">
        <path fill="#042E4A" d="M54.14 40.783a9.361 9.361 0 0 0-2.967-2l6.6-6.601c1.463-1.463 1.454-3.852-.02-5.325l-7.518-7.52a1.923 1.923 0 0 0-1.847-.5 1.897 1.897 0 0 0-1.345 1.35 6.5 6.5 0 0 1-1.772 3.024 6.485 6.485 0 0 1-4.787 1.844c-1.797-.067-3.464-.851-4.692-2.21-2.376-2.628-2.305-6.507.167-9.021a6.501 6.501 0 0 1 2.985-1.734 1.899 1.899 0 0 0 1.352-1.346 1.923 1.923 0 0 0-.501-1.846l-7.52-7.52c-1.473-1.473-3.862-1.482-5.324-.02L21.469 6.84a1.339 1.339 0 0 0 .007 1.894 1.339 1.339 0 0 0 1.894.007l5.481-5.482a1.089 1.089 0 0 1 1.538.006l6.646 6.645a9.17 9.17 0 0 0-2.993 2.029c-3.42 3.48-3.52 9.055-.23 12.694 1.724 1.906 4.063 3.004 6.592 3.098a9.122 9.122 0 0 0 6.736-2.589 9.17 9.17 0 0 0 2.082-3.044l6.645 6.645c.426.425.428 1.115.006 1.538l-7.47 7.47a1.903 1.903 0 0 0-.487 1.844c.18.66.704 1.179 1.365 1.356a6.63 6.63 0 0 1 2.971 1.718c2.578 2.577 2.593 6.756.034 9.315-2.56 2.56-6.738 2.544-9.315-.033a6.632 6.632 0 0 1-1.719-2.972 1.938 1.938 0 0 0-1.356-1.364 1.902 1.902 0 0 0-1.844.486l-7.47 7.47a1.089 1.089 0 0 1-1.538-.006L21.52 48.04a1.922 1.922 0 0 0-1.848-.5 1.9 1.9 0 0 0-1.346 1.355 6.51 6.51 0 0 1-1.696 2.959c-2.559 2.558-6.737 2.542-9.315-.036-2.578-2.578-2.594-6.757-.036-9.315a6.512 6.512 0 0 1 2.959-1.697 1.9 1.9 0 0 0 1.355-1.345 1.922 1.922 0 0 0-.5-1.848l-7.526-7.525a1.089 1.089 0 0 1-.005-1.538l5.071-5.072a1.339 1.339 0 0 0-.007-1.893 1.339 1.339 0 0 0-1.893-.007L1.66 26.649c-1.463 1.463-1.454 3.852.02 5.325l6.65 6.65a9.174 9.174 0 0 0-2.952 1.979C1.779 44.2 1.8 50.079 5.427 53.705c3.626 3.626 9.504 3.648 13.102.05a9.172 9.172 0 0 0 1.979-2.953l6.65 6.65c1.473 1.473 3.862 1.482 5.325.02l6.6-6.601a9.364 9.364 0 0 0 2.001 2.966c3.625 3.626 9.503 3.647 13.102.048 3.6-3.6 3.579-9.477-.047-13.102z"/>
        <path fill="#32D0BC" d="M19.502 10.504c-.469-.469-1.247-.45-1.74.043l-5.798 5.798c-.492.493-.511 1.271-.042 1.74.468.469 1.247.45 1.739-.042l5.799-5.8c.492-.492.51-1.27.042-1.739z"/>
        <g>
            <path fill="#042E4A" d="M74.091 41.121a9.361 9.361 0 0 1 2.967-2l-6.6-6.6c-1.463-1.463-1.454-3.852.02-5.326l7.518-7.52a1.923 1.923 0 0 1 1.847-.5 1.897 1.897 0 0 1 1.345 1.35 6.5 6.5 0 0 0 1.772 3.025 6.485 6.485 0 0 0 4.787 1.844c1.797-.067 3.464-.852 4.691-2.21 2.377-2.629 2.306-6.507-.166-9.022a6.501 6.501 0 0 0-2.985-1.734 1.899 1.899 0 0 1-1.352-1.346 1.923 1.923 0 0 1 .5-1.846l7.52-7.52C97.43.244 99.817.236 101.28 1.698l5.482 5.482a1.339 1.339 0 0 1-.007 1.893 1.339 1.339 0 0 1-1.894.007L99.38 3.598a1.089 1.089 0 0 0-1.538.005l-6.646 6.646a9.17 9.17 0 0 1 2.993 2.029c3.42 3.479 3.52 9.055.23 12.693-1.724 1.906-4.063 3.004-6.592 3.098a9.122 9.122 0 0 1-6.736-2.588 9.17 9.17 0 0 1-2.082-3.045l-6.645 6.645a1.089 1.089 0 0 0-.006 1.538l7.47 7.47c.48.48.666 1.187.487 1.844-.18.66-.704 1.18-1.365 1.356a6.63 6.63 0 0 0-2.972 1.719c-2.577 2.577-2.592 6.756-.033 9.315 2.56 2.559 6.738 2.544 9.315-.033a6.632 6.632 0 0 0 1.719-2.972 1.938 1.938 0 0 1 1.356-1.365 1.902 1.902 0 0 1 1.843.487l7.47 7.47c.423.422 1.113.42 1.539-.006l7.525-7.525a1.922 1.922 0 0 1 1.848-.5 1.9 1.9 0 0 1 1.346 1.354 6.51 6.51 0 0 0 1.696 2.96c2.558 2.557 6.737 2.542 9.315-.036 2.578-2.578 2.594-6.757.036-9.316a6.512 6.512 0 0 0-2.959-1.696 1.9 1.9 0 0 1-1.355-1.346 1.922 1.922 0 0 1 .5-1.847l7.526-7.526a1.089 1.089 0 0 0 .005-1.538l-5.072-5.071a1.339 1.339 0 0 1 .008-1.894 1.339 1.339 0 0 1 1.893-.007l5.072 5.072c1.462 1.463 1.454 3.851-.02 5.325l-6.65 6.65a9.174 9.174 0 0 1 2.952 1.978c3.599 3.599 3.577 9.476-.05 13.102-3.625 3.626-9.503 3.649-13.101.05a9.172 9.172 0 0 1-1.979-2.952l-6.65 6.65c-1.473 1.473-3.862 1.482-5.325.02l-6.6-6.602a9.364 9.364 0 0 1-2.001 2.967c-3.625 3.625-9.503 3.647-13.102.047-3.6-3.599-3.579-9.476.046-13.102z"/>
            <path fill="#32D0BC" d="M108.729 10.843c.468-.469 1.247-.45 1.739.042l5.799 5.8c.492.491.511 1.27.042 1.738-.468.47-1.247.45-1.74-.042l-5.798-5.799c-.492-.492-.511-1.27-.042-1.74z"/>
        </g>
    </g>
</svg>
