<svg xmlns="http://www.w3.org/2000/svg" width="37" height="37" viewBox="0 0 37 37">
    <g fill="#B5B5B5" fill-rule="nonzero">
        <path d="M34.514 9.254A18.37 18.37 0 0 0 23.286.638 18.37 18.37 0 0 0 9.254 2.486 18.37 18.37 0 0 0 .638 13.714a18.371 18.371 0 0 0 1.848 14.032 18.37 18.37 0 0 0 11.228 8.616 18.384 18.384 0 0 0 14.032-1.847 18.37 18.37 0 0 0 8.616-11.229 18.371 18.371 0 0 0-1.848-14.032zm-.012 13.534a16.458 16.458 0 0 1-7.719 10.059 16.458 16.458 0 0 1-12.57 1.655 16.458 16.458 0 0 1-10.06-7.719 16.458 16.458 0 0 1-1.655-12.57 16.458 16.458 0 0 1 7.719-10.06 16.469 16.469 0 0 1 12.57-1.655 16.458 16.458 0 0 1 10.06 7.719 16.458 16.458 0 0 1 1.655 12.57z"/>
        <path d="M27.373 16.755L15.483 9.89a1.995 1.995 0 0 0-2.015 0 1.995 1.995 0 0 0-1.008 1.746v13.729c0 .728.377 1.38 1.008 1.745a2.01 2.01 0 0 0 1.007.273c.346 0 .693-.091 1.008-.273l11.89-6.865A1.995 1.995 0 0 0 28.38 18.5c0-.728-.376-1.38-1.007-1.745zm-.963 1.823l-11.89 6.864a.08.08 0 0 1-.09 0c-.044-.026-.044-.06-.044-.077v-13.73c0-.016 0-.051.045-.077a.09.09 0 0 1 .045-.013c.02 0 .035.008.044.013l11.89 6.865a.08.08 0 0 1 .044.077c0 .052-.03.07-.044.078zM29.868 9.715a14.522 14.522 0 0 0-9.445-5.453.963.963 0 0 0-.261 1.908 12.58 12.58 0 0 1 8.183 4.724.961.961 0 0 0 1.35.172.963.963 0 0 0 .173-1.35z"/>
    </g>
</svg>
