<?xml version="1.0" encoding="UTF-8"?>
<svg width="107px" height="29px" viewBox="0 0 107 29" version="1.1" xmlns="http://www.w3.org/2000/svg" xmlns:xlink="http://www.w3.org/1999/xlink">
    <!-- Generator: Sketch 47.1 (45422) - http://www.bohemiancoding.com/sketch -->
    <title>Artboard</title>
    <desc>Created with Sketch.</desc>
    <defs></defs>
    <g id="Page-1" stroke="none" stroke-width="1" fill="none" fill-rule="evenodd">
        <g id="Artboard">
            <g id="Sparta" transform="translate(1.000000, 1.000000)">
                <path d="M36.534,19.206 C36.2393319,18.9459987 36.1873324,18.6686681 36.378,18.374 L37.054,17.308 C37.1580005,17.1346658 37.2966658,17.0263335 37.47,16.983 C37.6433342,16.9396664 37.7993326,16.9786661 37.938,17.1 C38.4580026,17.5333355 38.8609986,17.8496657 39.147,18.049 C39.4330014,18.2483343 39.8403307,18.4389991 40.369,18.621 C40.8976693,18.8030009 41.4739969,18.894 42.098,18.894 C42.9820044,18.894 43.692664,18.6600023 44.23,18.192 C44.767336,17.7239977 45.036,17.1520034 45.036,16.476 C45.036,15.7306629 44.7196698,15.0806694 44.087,14.526 C43.4543302,13.9713306 42.4620068,13.4166694 41.11,12.862 C39.584659,12.2206635 38.4146707,11.4883374 37.6,10.665 C36.7853293,9.84166255 36.378,8.7366736 36.378,7.35 C36.378,6.81266398 36.4863323,6.27533602 36.703,5.738 C36.9196678,5.20066398 37.2403312,4.68500247 37.665,4.191 C38.0896688,3.69699753 38.6833295,3.29833485 39.446,2.995 C40.2086705,2.69166515 41.0839951,2.54 42.072,2.54 C43.8226754,2.54 45.4259927,3.05132822 46.882,4.074 C47.2286684,4.29933446 47.2806679,4.59399818 47.038,4.958 L46.388,5.946 C46.1453321,6.34466866 45.8420018,6.43133446 45.478,6.206 C45.0099977,5.91133186 44.6546679,5.69466736 44.412,5.556 C44.1693321,5.41733264 43.8183356,5.27433407 43.359,5.127 C42.8996644,4.97966593 42.4360023,4.906 41.968,4.906 C40.9799951,4.906 40.2433358,5.14866424 39.758,5.634 C39.2726642,6.11933576 39.03,6.65666372 39.03,7.246 C39.03,7.95667022 39.298664,8.56333082 39.836,9.066 C40.373336,9.56866918 41.2053277,10.0539977 42.332,10.522 C44.1346757,11.2500036 45.5169952,12.0429957 46.479,12.901 C47.4410048,13.7590043 47.922,14.9073261 47.922,16.346 C47.922,17.7153402 47.3716722,18.8766619 46.271,19.83 C45.1703278,20.7833381 43.7880083,21.26 42.124,21.26 C41.1706619,21.26 40.2476711,21.1040016 39.355,20.792 C38.4623289,20.4799984 37.8296685,20.1940013 37.457,19.934 C37.0843315,19.6739987 36.7766679,19.4313345 36.534,19.206 Z M52.952,20.454 L52.952,26.616 C52.952,26.9973352 52.7440021,27.188 52.328,27.188 L50.872,27.188 C50.7159992,27.188 50.5816672,27.1316672 50.469,27.019 C50.3563328,26.9063328 50.3,26.7720008 50.3,26.616 L50.3,9.56 C50.3,9.42133264 50.3563328,9.29133394 50.469,9.17 C50.5816672,9.04866606 50.7159992,8.988 50.872,8.988 L51.522,8.988 C51.7820013,8.988 51.9553329,9.1179987 52.042,9.378 L52.354,10.158 C52.5100008,10.0019992 52.7049988,9.8373342 52.939,9.664 C53.1730012,9.4906658 53.5976636,9.29133446 54.213,9.066 C54.8283364,8.84066554 55.46533,8.728 56.124,8.728 C57.7533415,8.728 59.1053279,9.33899389 60.18,10.561 C61.254672,11.7830061 61.792,13.260658 61.792,14.994 C61.792,16.7620088 61.2373389,18.2526606 60.128,19.466 C59.0186611,20.6793394 57.6493415,21.286 56.02,21.286 C54.8586608,21.286 53.8360044,21.0086694 52.952,20.454 Z M52.9,17.932 C53.6800039,18.5213363 54.6073279,18.816 55.682,18.816 C56.6526715,18.816 57.4803299,18.4476703 58.165,17.711 C58.8496701,16.9743297 59.192,16.068672 59.192,14.994 C59.192,13.9019945 58.8756698,12.9963369 58.243,12.277 C57.6103302,11.5576631 56.7913383,11.198 55.786,11.198 C55.0233295,11.198 54.373336,11.4059979 53.836,11.822 C53.298664,12.2380021 52.9866671,12.5933319 52.9,12.888 L52.9,17.932 Z M63.494,17.282 C63.494,16.1379943 63.9186624,15.2063369 64.768,14.487 C65.6173376,13.7676631 66.7959924,13.408 68.304,13.408 C68.6680018,13.408 69.0536646,13.438333 69.461,13.499 C69.8683353,13.559667 70.1759989,13.6159997 70.384,13.668 L70.722,13.772 C70.7566668,12.8013285 70.6310014,12.0993355 70.345,11.666 C70.0589985,11.2326645 69.543337,11.016 68.798,11.016 C67.8619953,11.016 66.7440065,11.2066648 65.444,11.588 C65.0799982,11.6573337 64.8546671,11.4926687 64.768,11.094 L64.534,10.106 C64.4646663,9.7593316 64.594665,9.52533394 64.924,9.404 C66.120006,8.95333108 67.4979922,8.728 69.058,8.728 C69.9766712,8.728 70.7306637,8.85366541 71.32,9.105 C71.9093363,9.35633459 72.338332,9.75066398 72.607,10.288 C72.875668,10.825336 73.0533329,11.3669973 73.14,11.913 C73.2266671,12.4590027 73.27,13.165329 73.27,14.032 L73.27,20.428 C73.27,20.5840008 73.2093339,20.7183328 73.088,20.831 C72.966666,20.9436672 72.8366673,21 72.698,21 L71.84,21 C71.6319989,21 71.4673339,20.8613347 71.346,20.584 L71.06,19.778 C70.0199948,20.7833384 68.7893404,21.286 67.368,21.286 C66.2239943,21.286 65.2923369,20.9263369 64.573,20.207 C63.853663,19.4876631 63.494,18.5126728 63.494,17.282 Z M66.042,17.256 C66.042,17.8106694 66.2023317,18.2656649 66.523,18.621 C66.8436682,18.9763351 67.3073303,19.154 67.914,19.154 C68.4686694,19.154 69.0189972,18.9980016 69.565,18.686 C70.1110027,18.3739984 70.4879989,18.0446684 70.696,17.698 L70.696,15.696 C70.574666,15.6266663 70.3016688,15.5400005 69.877,15.436 C69.4523312,15.3319995 68.9973357,15.28 68.512,15.28 C67.7839963,15.28 67.1903356,15.4576649 66.731,15.813 C66.2716643,16.1683351 66.042,16.6493303 66.042,17.256 Z M76.506,20.428 L76.506,9.56 C76.506,9.42133264 76.5623327,9.29133394 76.675,9.17 C76.7876672,9.04866606 76.9219992,8.988 77.078,8.988 L77.702,8.988 C77.9793347,8.988 78.1526663,9.12666528 78.222,9.404 L78.56,10.496 C78.6813339,10.3226658 78.8633321,10.1190012 79.106,9.885 C79.3486678,9.65099883 79.7603304,9.39966801 80.341,9.131 C80.9216695,8.86233199 81.54133,8.728 82.2,8.728 C82.8760033,8.728 83.4523309,8.82333238 83.929,9.014 C84.405669,9.20466762 84.5573342,9.48199818 84.384,9.846 L83.76,11.146 C83.6039992,11.4926684 83.3613349,11.5880008 83.032,11.432 C82.7546652,11.2759992 82.3906689,11.198 81.94,11.198 C81.4026639,11.198 80.9043356,11.3279987 80.445,11.588 C79.9856643,11.8480013 79.6650009,12.081999 79.483,12.29 C79.3009991,12.498001 79.1753336,12.6713326 79.106,12.81 L79.106,20.428 C79.106,20.6706679 79.0410006,20.8266663 78.911,20.896 C78.7809993,20.9653337 78.5686681,21 78.274,21 L77.078,21 C76.9219992,21 76.7876672,20.9436672 76.675,20.831 C76.5623327,20.7183328 76.506,20.5840008 76.506,20.428 Z M87.448,17.698 L87.448,11.198 L86.07,11.198 C85.9139992,11.198 85.7796672,11.1416672 85.667,11.029 C85.5543327,10.9163328 85.498,10.7820008 85.498,10.626 L85.498,9.56 C85.498,9.17866476 85.6886647,8.988 86.07,8.988 L87.448,8.988 L87.448,5.634 C87.448,5.47799922 87.5043327,5.34366723 87.617,5.231 C87.7296672,5.11833277 87.8639992,5.062 88.02,5.062 L89.502,5.062 C89.6580007,5.062 89.7879994,5.11833277 89.892,5.231 C89.9960005,5.34366723 90.048,5.47799922 90.048,5.634 L90.048,8.988 L93.22,8.988 C93.3760007,8.988 93.5103327,9.03999948 93.623,9.144 C93.7356672,9.24800052 93.792,9.3866658 93.792,9.56 L93.792,10.626 C93.792,10.7646674 93.7356672,10.8946661 93.623,11.016 C93.5103327,11.1373339 93.3760007,11.198 93.22,11.198 L90.048,11.198 L90.048,17.594 C90.048,18.0620023 90.1303325,18.3826658 90.295,18.556 C90.4596675,18.7293342 90.6979984,18.816 91.01,18.816 C91.6513365,18.816 92.2926634,18.6253352 92.934,18.244 C93.2633349,18.0533324 93.4973326,18.1399982 93.636,18.504 L94.104,19.726 C94.2253339,20.0033347 94.1300015,20.2373324 93.818,20.428 C93.5059984,20.6186676 93.0336698,20.8093324 92.401,21 C91.7683301,21.1906676 91.1313365,21.286 90.49,21.286 C89.3633277,21.286 88.5746689,20.9783364 88.124,20.363 C87.673331,19.7476636 87.448,18.8593391 87.448,17.698 Z M95.312,17.282 C95.312,16.1379943 95.7366624,15.2063369 96.586,14.487 C97.4353375,13.7676631 98.6139924,13.408 100.122,13.408 C100.486002,13.408 100.871665,13.438333 101.279,13.499 C101.686335,13.559667 101.993999,13.6159997 102.202,13.668 L102.54,13.772 C102.574667,12.8013285 102.449001,12.0993355 102.163,11.666 C101.876999,11.2326645 101.361337,11.016 100.616,11.016 C99.6799953,11.016 98.5620065,11.2066648 97.262,11.588 C96.8979981,11.6573337 96.6726671,11.4926687 96.586,11.094 L96.352,10.106 C96.2826663,9.7593316 96.412665,9.52533394 96.742,9.404 C97.9380059,8.95333108 99.3159922,8.728 100.876,8.728 C101.794671,8.728 102.548664,8.85366541 103.138,9.105 C103.727336,9.35633459 104.156332,9.75066398 104.425,10.288 C104.693668,10.825336 104.871333,11.3669973 104.958,11.913 C105.044667,12.4590027 105.088,13.165329 105.088,14.032 L105.088,20.428 C105.088,20.5840008 105.027334,20.7183328 104.906,20.831 C104.784666,20.9436672 104.654667,21 104.516,21 L103.658,21 C103.449999,21 103.285334,20.8613347 103.164,20.584 L102.878,19.778 C101.837995,20.7833384 100.60734,21.286 99.186,21.286 C98.0419942,21.286 97.1103369,20.9263369 96.391,20.207 C95.671663,19.4876631 95.312,18.5126728 95.312,17.282 Z M97.86,17.256 C97.86,17.8106694 98.0203317,18.2656649 98.341,18.621 C98.6616682,18.9763351 99.1253303,19.154 99.732,19.154 C100.286669,19.154 100.836997,18.9980016 101.383,18.686 C101.929003,18.3739984 102.305999,18.0446684 102.514,17.698 L102.514,15.696 C102.392666,15.6266663 102.119669,15.5400005 101.695,15.436 C101.270331,15.3319995 100.815336,15.28 100.33,15.28 C99.6019963,15.28 99.0083356,15.4576649 98.549,15.813 C98.0896643,16.1683351 97.86,16.6493303 97.86,17.256 Z" fill="#FFFFFF"></path>
                <path d="M22.1446541,0.0920200604 L27.6037736,1.67692572 C27.8679245,1.76497604 28,1.98510182 28,2.24925276 L28,2.38132824 L27.4716981,7.44422132 C27.427673,7.70837226 27.2075472,7.92849805 26.9433962,7.92849805 L11.8427673,7.92849805 C11.6226415,7.92849805 11.4465409,7.79642258 11.3584906,7.62032195 C11.1383648,7.18007037 10.6981132,6.91591943 10.1257862,6.91591943 C9.50943396,6.91591943 8.89308176,7.26812069 8.49685535,7.75239742 C8.40880503,7.88447289 8.2327044,7.92849805 8.10062893,7.92849805 L2.11320755,7.92849805 C1.80503145,7.92849805 1.5408805,7.6643471 1.58490566,7.356171 L2.06918239,2.82157981 C2.11320755,2.55742887 2.28930818,2.38132824 2.55345912,2.33730308 L21.1761006,0.0479949032 C21.4402516,-0.0400554113 21.7924528,0.00396974595 22.1446541,0.0920200604 Z M25.490566,21.8844729 L6.82389937,24.1737811 C6.47169811,24.2178062 6.11949686,24.1737811 5.7672956,24.0857308 L0.396226415,22.5448502 C0.132075472,22.4567999 0,22.2366741 0,21.9725232 L0,21.8404477 L0.528301887,16.7775547 C0.572327044,16.5134037 0.79245283,16.2932779 1.05660377,16.2932779 L16.1572327,16.2932779 C16.3773585,16.2932779 16.5534591,16.4253534 16.6415094,16.601454 C16.8616352,17.0417056 17.3018868,17.3058565 17.8742138,17.3058565 C18.490566,17.3058565 19.1069182,16.9976804 19.5031447,16.4693786 C19.591195,16.3373031 19.7672956,16.2932779 19.8993711,16.2932779 L25.8867925,16.2932779 C26.1949686,16.2932779 26.4591195,16.5574289 26.4150943,16.865605 L25.8867925,21.4001962 C25.9308176,21.6203219 25.7106918,21.8404477 25.490566,21.8844729 Z M9.37735849,10.3058565 C9.99371069,10.3058565 10.6100629,9.99768044 11.0062893,9.46937855 C11.0943396,9.38132824 11.2264151,9.29327792 11.4025157,9.29327792 L26.6352201,9.29327792 C26.9433962,9.29327792 27.2075472,9.55742887 27.163522,9.86560497 L26.6792453,14.356171 C26.6352201,14.6203219 26.4150943,14.8404477 26.1509434,14.8404477 L20.2955975,14.8404477 C20.0754717,14.8404477 19.8993711,14.7083723 19.8113208,14.5322716 C19.591195,14.0920201 19.1509434,13.8278691 18.5786164,13.8278691 C17.9622642,13.8278691 17.3459119,14.1800704 16.9496855,14.6643471 C16.8616352,14.7523974 16.7295597,14.8404477 16.5534591,14.8404477 L1.32075472,14.8404477 C1.01257862,14.8404477 0.748427673,14.5762968 0.79245283,14.2681207 L1.27672956,9.77755465 C1.32075472,9.51340371 1.5408805,9.29327792 1.80503145,9.29327792 L7.66037736,9.29327792 C7.88050314,9.29327792 8.05660377,9.42535339 8.14465409,9.60145402 C8.36477987,10.0417056 8.80503145,10.3058565 9.37735849,10.3058565 Z" id="Combined-Shape" fill="#DEDEDE" fill-rule="nonzero"></path>
            </g>
        </g>
    </g>
</svg>