<svg xmlns="http://www.w3.org/2000/svg" width="224" height="28" viewBox="0 0 224 28">
    <g fill="none" fill-rule="evenodd">
        <path fill="#FFF" d="M39.593 19.137c.432.405 2.511 2.133 5.805 2.133 3.51 0 6.021-2.295 6.021-5.103 0-3.294-2.673-4.779-5.805-6.048-2.241-.918-3.429-1.863-3.429-3.402 0-.999.783-2.43 3.051-2.43 1.566 0 2.592.675 3.645 1.35.378.243.729.081.945-.27l.675-1.026a.642.642 0 0 0-.162-.918c-.27-.189-2.295-1.593-4.995-1.593-4.293 0-5.913 2.889-5.913 4.995 0 3.132 2.16 4.563 4.914 5.724 2.673 1.107 4.077 2.133 4.077 3.753 0 1.377-1.188 2.511-3.051 2.511-2.079 0-3.051-.81-4.32-1.863-.297-.243-.702-.135-.918.216l-.702 1.107c-.297.459-.081.648.162.864zm18.576 1.35c0 .27.243.513.513.513h1.782c.27 0 .513-.243.513-.513V4.638h4.401a.513.513 0 0 0 .513-.513V2.613a.513.513 0 0 0-.513-.513h-11.61a.513.513 0 0 0-.513.513v1.512c0 .27.216.513.513.513h4.401v15.849zm10.881 0V2.613c0-.27.216-.513.513-.513h7.344c3.24 0 5.886 2.565 5.886 5.778 0 2.484-1.647 4.536-3.996 5.481l3.699 6.858c.189.351 0 .783-.459.783h-2.025c-.297 0-.459-.135-.567-.351l-3.537-7.047h-4.077v6.885c0 .27-.243.513-.513.513h-1.755a.513.513 0 0 1-.513-.513zm2.835-9.207h4.806c1.755 0 3.294-1.485 3.294-3.348 0-1.755-1.539-3.213-3.294-3.213h-4.806v6.561zM84.872 21c-.405 0-.621-.351-.459-.702l8.289-18.171c.081-.162.324-.297.459-.297h.27c.135 0 .378.135.459.297l8.235 18.171c.162.351-.054.702-.459.702h-1.701c-.324 0-.513-.162-.621-.405l-1.674-3.699h-8.829l-1.647 3.699a.679.679 0 0 1-.621.405h-1.701zm5.022-6.426h6.75l-3.321-7.398h-.135l-3.294 7.398zm16.875 5.913V4.638h-4.401a.513.513 0 0 1-.513-.513V2.613c0-.27.216-.513.513-.513h11.61c.297 0 .513.243.513.513v1.512c0 .27-.216.513-.513.513h-4.401v15.849c0 .27-.243.513-.513.513h-1.782a.531.531 0 0 1-.513-.513zm10.881 0c0 .27.243.513.513.513h1.782c.27 0 .513-.243.513-.513V2.613a.531.531 0 0 0-.513-.513h-1.782a.531.531 0 0 0-.513.513v17.874zm6.561-8.91c0-5.4 4.293-9.747 9.693-9.747 5.4 0 9.72 4.347 9.72 9.747 0 5.4-4.32 9.693-9.72 9.693a9.634 9.634 0 0 1-9.693-9.693zm2.7 0c0 3.861 3.159 7.074 6.993 7.074 3.861 0 7.02-3.213 7.02-7.074 0-3.834-3.159-7.128-7.02-7.128-3.834 0-6.993 3.294-6.993 7.128z"/>
        <path fill="#37B5E4" d="M21.794.102l5.38 1.557c.246.07.405.308.378.564l-.012.12-.526 5.044a.527.527 0 0 1-.522.474H11.659a.529.529 0 0 1-.472-.302c-.214-.431-.656-.713-1.222-.713-.614 0-1.22.331-1.62.826a.515.515 0 0 1-.401.19H2.038a.528.528 0 0 1-.521-.585l.47-4.515a.527.527 0 0 1 .458-.47L20.75.02c.35-.044.705-.016 1.044.082zm3.281 21.606L6.725 23.98c-.35.044-.704.015-1.042-.083L.38 22.364a.529.529 0 0 1-.377-.564l.015-.143.525-5.044a.527.527 0 0 1 .523-.474h14.841c.201 0 .38.118.47.299.216.427.656.706 1.219.706.61 0 1.213-.328 1.612-.818a.516.516 0 0 1 .401-.187h5.906c.313 0 .557.274.521.588l-.503 4.514a.527.527 0 0 1-.458.467zM9.249 10.246c.61 0 1.213-.328 1.612-.818a.515.515 0 0 1 .4-.187h14.977c.312 0 .555.272.522.585l-.465 4.459a.527.527 0 0 1-.522.474h-5.767a.53.53 0 0 1-.472-.302c-.214-.432-.655-.713-1.222-.713-.614 0-1.22.33-1.62.826a.516.516 0 0 1-.402.19H1.32a.528.528 0 0 1-.522-.586l.464-4.459a.527.527 0 0 1 .522-.474H7.56c.2 0 .38.118.47.298.216.428.656.707 1.219.707z"/>
        <path fill="#37B5E4" fill-rule="nonzero" d="M151.701 19.083c-.216-.189-.54-.432-.162-.918l.405-.513c.27-.351.486-.486.864-.162.189.162 2.241 1.971 4.644 1.971 2.187 0 3.618-1.377 3.618-3.078 0-1.863-1.62-2.943-4.725-4.266-2.97-1.269-4.752-2.403-4.752-5.481 0-1.836 1.458-4.806 5.751-4.806 2.646 0 4.617 1.377 4.617 1.377.162.081.459.405.162.918l-.27.459c-.216.378-.513.378-.945.135-1.134-.675-2.079-1.08-3.591-1.08-2.862 0-3.726 1.836-3.726 2.97 0 1.917 1.377 2.754 3.645 3.699 3.645 1.485 5.994 2.862 5.994 5.994 0 2.808-2.673 4.968-5.832 4.968-3.186 0-5.346-1.863-5.697-2.187zm16.578 1.188v6.561a.618.618 0 0 1-.594.594h-.783a.6.6 0 0 1-.594-.594V9.12c0-.297.27-.594.594-.594h.459c.297 0 .378.081.513.405l.189.594s1.512-1.269 3.753-1.269c3.402 0 5.805 2.943 5.805 6.507 0 3.645-2.457 6.534-5.886 6.534-2.079 0-3.456-1.026-3.456-1.026zm0-1.863s1.431 1.08 3.159 1.08c2.403 0 4.158-2.025 4.158-4.752 0-2.43-1.512-4.671-4.023-4.671-1.998 0-3.294 1.512-3.294 1.512v6.831zm11.799-1.188c0-2.376 1.782-4.131 4.995-4.131 1.323 0 2.673.405 2.673.405.027-2.295-.27-3.429-2.052-3.429-1.701 0-3.132.54-3.699.729-.324.135-.486-.027-.594-.324l-.27-.729c-.108-.378.081-.54.378-.675.621-.27 2.241-.81 4.293-.81 3.186 0 3.861 1.566 3.861 5.238v6.912a.6.6 0 0 1-.594.594h-.513c-.324 0-.432-.189-.513-.459l-.243-.837a5.435 5.435 0 0 1-3.861 1.593c-2.187 0-3.861-1.566-3.861-4.077zm1.971 0c0 1.269.864 2.268 2.241 2.268 1.539 0 2.889-.864 3.429-1.674v-2.538c-.405-.216-1.404-.486-2.646-.486-1.728 0-3.024.837-3.024 2.43zm11.718 3.186V9.12c0-.297.27-.594.594-.594h.432c.243 0 .459.135.54.432l.216.891s1.242-1.593 3.834-1.593c.945 0 2.484.135 2.187.999l-.351.972c-.135.405-.432.432-.729.297s-.756-.351-1.35-.351c-2.403 0-3.375 1.593-3.375 1.593v8.64a.618.618 0 0 1-.594.594h-.81a.6.6 0 0 1-.594-.594zm11.232-10.152h-1.647c-.378 0-.621-.27-.621-.594v-.54c0-.351.243-.594.621-.594h1.647V5.07c0-.324.297-.567.594-.594l.837-.054c.324-.027.567.27.567.594v3.51h3.672c.351 0 .621.243.621.594v.54c0 .324-.27.594-.621.594h-3.672v7.452c0 1.296.405 1.782 1.107 1.782 1.161 0 1.944-.486 2.457-.81.486-.297.648-.054.783.243l.243.567c.162.405.108.594-.216.81-.54.378-1.836.999-3.51.999-2.376 0-2.862-1.512-2.862-3.456v-7.587zm8.451 6.966c0-2.376 1.782-4.131 4.995-4.131 1.323 0 2.673.405 2.673.405.027-2.295-.27-3.429-2.052-3.429-1.701 0-3.132.54-3.699.729-.324.135-.486-.027-.594-.324l-.27-.729c-.108-.378.081-.54.378-.675.621-.27 2.241-.81 4.293-.81 3.186 0 3.861 1.566 3.861 5.238v6.912a.6.6 0 0 1-.594.594h-.513c-.324 0-.432-.189-.513-.459l-.243-.837a5.435 5.435 0 0 1-3.861 1.593c-2.187 0-3.861-1.566-3.861-4.077zm1.971 0c0 1.269.864 2.268 2.241 2.268 1.539 0 2.889-.864 3.429-1.674v-2.538c-.405-.216-1.404-.486-2.646-.486-1.728 0-3.024.837-3.024 2.43z"/>
    </g>
</svg>
