<svg xmlns="http://www.w3.org/2000/svg" width="37" height="37" viewBox="0 0 37 37">
    <g fill="#B5B5B5" fill-rule="nonzero">
        <path d="M34.514 9.254A18.37 18.37 0 0 0 23.286.638 18.37 18.37 0 0 0 9.254 2.486 18.37 18.37 0 0 0 .638 13.714a18.371 18.371 0 0 0 1.847 14.032 18.37 18.37 0 0 0 11.229 8.616 18.384 18.384 0 0 0 14.032-1.847 18.37 18.37 0 0 0 8.616-11.229 18.371 18.371 0 0 0-1.848-14.032zm-.012 13.534a16.458 16.458 0 0 1-7.72 10.059 16.458 16.458 0 0 1-12.57 1.655 16.458 16.458 0 0 1-10.059-7.719 16.458 16.458 0 0 1-1.655-12.57 16.458 16.458 0 0 1 7.719-10.06 16.469 16.469 0 0 1 12.57-1.655 16.458 16.458 0 0 1 10.06 7.719 16.458 16.458 0 0 1 1.655 12.57z"/>
        <path d="M29.868 9.715a14.522 14.522 0 0 0-9.445-5.453.963.963 0 0 0-.261 1.908 12.58 12.58 0 0 1 8.183 4.724.961.961 0 0 0 1.35.172.963.963 0 0 0 .173-1.35zM15 13a2 2 0 0 0-2 2v8a2 2 0 0 0 2 2h7a2 2 0 0 0 2-2v-8a2 2 0 0 0-2-2h-7zm0-2h7a4 4 0 0 1 4 4v8a4 4 0 0 1-4 4h-7a4 4 0 0 1-4-4v-8a4 4 0 0 1 4-4z"/>
    </g>
</svg>
