<?xml version="1.0" encoding="UTF-8"?>
<svg width="67px" height="64px" viewBox="0 0 67 64" version="1.1" xmlns="http://www.w3.org/2000/svg" xmlns:xlink="http://www.w3.org/1999/xlink">
    <!-- Generator: Sketch 52.5 (67469) - http://www.bohemiancoding.com/sketch -->
    <title>View data</title>
    <desc>Created with Sketch.</desc>
    <g id="View-data" stroke="none" stroke-width="1" fill="none" fill-rule="evenodd">
        <g id="bug" transform="translate(14.000000, 15.000000)" fill="#000000">
            <g id="debug-icon" transform="translate(20.000000, 20.000000) rotate(30.000000) translate(-20.000000, -20.000000) translate(8.000000, 8.000000)">
                <path d="M12.0499992,9 C10.5312162,9 9.29999924,8.76878306 9.29999924,7.25 C9.29999924,5.73121694 10.5312162,4.5 12.0499992,4.5 C13.5687823,4.5 14.7999992,5.73121694 14.7999992,7.25 C14.7999992,8.76878306 13.5687823,9 12.0499992,9 Z M12.0499992,8.36363636 C13.0164975,8.36363636 13.7999992,8.21649831 13.7999992,7.25 C13.7999992,6.28350169 13.0164975,5.5 12.0499992,5.5 C11.0835009,5.5 10.2999992,6.28350169 10.2999992,7.25 C10.2999992,8.21649831 11.0835009,8.36363636 12.0499992,8.36363636 Z" id="Combined-Shape"></path>
                <path d="M15.7805042,12.462051 L19.9589043,12.462051 C20.2796713,12.462051 20.5397043,12.722084 20.5397043,13.042851 L20.5397043,13.161251 C20.5397043,13.482018 20.2796713,13.742051 19.9589043,13.742051 L15.7805042,13.742051 C15.4597372,13.742051 15.1997042,13.482018 15.1997042,13.161251 L15.1997042,13.042851 C15.1997042,12.722084 15.4597372,12.462051 15.7805042,12.462051 Z" id="Rectangle-2"></path>
                <rect id="Rectangle-2" x="3.84" y="12.48" width="4.16" height="1.28" rx="0.5808"></rect>
                <path d="M8.2608,8 L15.4192,8 C15.739967,8 16,8.26003302 16,8.5808 L16,15.36 C16,17.6575046 14.1375046,19.52 11.84,19.52 C9.54249544,19.52 7.68,17.6575046 7.68,15.36 L7.68,8.5808 C7.68,8.26003302 7.94003302,8 8.2608,8 Z M9.46079916,9 C9.14003218,9 8.87999916,9.26003302 8.87999916,9.5808 L8.87999916,15.2850001 C8.87999916,16.9501387 10.2298607,18.3000002 11.8949993,18.3000002 C13.5601378,18.3000002 14.9099994,16.9501387 14.9099994,15.2850001 L14.9099994,9.5808 C14.9099994,9.26003302 14.6499664,9 14.3291994,9 L9.46079916,9 Z" id="Combined-Shape"></path>
                <path d="M15.68,10.88 L18.4772795,10.88 C18.6927116,10.88 18.8904456,10.7607554 18.9909714,10.5702153 L20.094418,8.47870385 C20.2353063,8.21165922 20.1330364,7.88096425 19.8659918,7.74007594 C19.8656226,7.73988113 19.8652531,7.73968675 19.8648834,7.73949278 L19.8648834,7.73949278 C19.6116404,7.60662674 19.2986371,7.70421157 19.1657711,7.95745461 C19.1616959,7.96522187 19.1578188,7.97309143 19.1541434,7.98105566 C18.5834691,9.21768504 18.2254159,9.83599741 18.0799938,9.83599741 C17.9162747,9.83599741 17.1162768,9.83599741 15.68,9.83599741" id="Path-2"></path>
                <path d="M15.68,18.24 L18.4772665,18.24 C18.6926989,18.24 18.8904331,18.1207551 18.9909588,17.9302146 L20.0944011,15.838704 C20.235289,15.5716593 20.1330186,15.2409646 19.8659739,15.1000767 C19.8656051,15.0998821 19.8652361,15.099688 19.8648668,15.0994943 L19.8648668,15.0994943 C19.6116245,14.9666281 19.2986217,15.0642123 19.1657555,15.3174547 C19.1616802,15.3252223 19.1578028,15.3330923 19.1541273,15.3410569 C18.5834575,16.5776861 18.2254058,17.1959979 18.0799843,17.1959979 C17.9162659,17.1959979 17.1162711,17.1959979 15.68,17.1959979" id="Path-2-Copy-2" transform="translate(17.920000, 16.640000) scale(1, -1) translate(-17.920000, -16.640000) "></path>
                <path d="M3.52,10.88 L6.31729261,10.88 C6.53272434,10.88 6.73045811,10.7607558 6.83098406,10.5702161 L7.93443494,8.47870471 C8.07532366,8.21166033 7.97305429,7.88096521 7.7060099,7.74007649 C7.70564014,7.73988141 7.70527016,7.73968675 7.70489995,7.73949252 L7.70489995,7.73949252 C7.45165626,7.60662665 7.13865263,7.70421215 7.00578676,7.95745583 C7.00171185,7.96522265 6.99783493,7.97309175 6.99415976,7.98105551 C6.42348078,9.2176846 6.06542601,9.83599732 5.92000334,9.83599732 C5.75628358,9.83599732 4.95628247,9.83599732 3.52,9.83599732" id="Path-2-Copy" transform="translate(5.760000, 9.280000) scale(-1, 1) translate(-5.760000, -9.280000) "></path>
                <path d="M3.52,18.24 L6.3172665,18.24 C6.53269887,18.24 6.73043311,18.1207551 6.83095878,17.9302146 L7.93440108,15.838704 C8.07528895,15.5716593 7.9730186,15.2409646 7.70597386,15.1000767 C7.70560508,15.0998821 7.70523607,15.099688 7.70486684,15.0994943 L7.70486684,15.0994943 C7.45162448,14.9666281 7.13862169,15.0642123 7.00575554,15.3174547 C7.00168016,15.3252223 6.99780281,15.3330923 6.99412726,15.3410569 C6.42345747,16.5776861 6.0654058,17.1959979 5.91998435,17.1959979 C5.75626589,17.1959979 4.9562711,17.1959979 3.52,17.1959979" id="Path-2-Copy-3" transform="translate(5.760000, 16.640000) scale(-1, -1) translate(-5.760000, -16.640000) "></path>
            </g>
        </g>
        <path d="M22.125,9 L39.2216797,9 L51.1933594,20.9716797 L51.1933594,44.875 C51.1933594,46.2897206 50.686203,47.5042267 49.671875,48.5185547 C48.6842399,49.5061898 47.48308,50 46.0683594,50 L22.125,50 C20.7102794,50 19.5091195,49.5061898 18.5214844,48.5185547 C17.5071564,47.5042267 17,46.2897206 17,44.875 L17,14.125 C17,12.7102794 17.5071564,11.5091195 18.5214844,10.5214844 C19.5091195,9.50715639 20.7102794,9 22.125,9 Z M35.8183594,24.375 L35.8183594,12.4433594 L22.125,12.4433594 C21.6445288,12.4433594 21.2441422,12.603514 20.9238281,12.9238281 C20.603514,13.2441422 20.4433594,13.6445288 20.4433594,14.125 L20.4433594,44.875 C20.4433594,45.3554712 20.603514,45.769204 20.9238281,46.1162109 C21.2441422,46.436525 21.6445288,46.5966797 22.125,46.5966797 L46.0683594,46.5966797 C46.5488305,46.5966797 46.9492171,46.436525 47.2695312,46.1162109 C47.5898454,45.769204 47.75,45.3554712 47.75,44.875 L47.75,24.375 L35.8183594,24.375 Z M46.3486328,20.9716797 L39.2216797,13.8447266 L39.2216797,20.9716797 L46.3486328,20.9716797 Z" id="" fill="#000000"></path>
    </g>
</svg>