<svg xmlns="http://www.w3.org/2000/svg" width="167" height="180" viewBox="0 0 167 180">
    <g fill="none" fill-rule="evenodd" opacity=".301">
        <path stroke="#28282B" stroke-width="2" d="M152.322 178.667h-138a3 3 0 0 1-3-3v-138a3 3 0 0 1 3-3h138a3 3 0 0 1 3 3v138a3 3 0 0 1-3 3z"/>
        <path stroke="#28282B" d="M20.5 118h-17a3 3 0 0 1-3-3V98a3 3 0 0 1 3-3h17a3 3 0 0 1 3 3v17a3 3 0 0 1-3 3zM163.5 118h-17a3 3 0 0 1-3-3V98a3 3 0 0 1 3-3h17a3 3 0 0 1 3 3v17a3 3 0 0 1-3 3zM133.322 159.667h-100a3 3 0 0 1-3-3v-100a3 3 0 0 1 3-3h100a3 3 0 0 1 3 3v100a3 3 0 0 1-3 3z"/>
        <path stroke="#333" stroke-linecap="round" stroke-linejoin="round" stroke-width=".5" d="M30.322 106.667c0-29.271 23.73-53 53-53 29.271 0 53 23.729 53 53 0 29.27-23.729 53-53 53-29.27 0-53-23.73-53-53z"/>
        <path fill="#333" d="M77.277 54.5a6 6 0 1 1 6 6c-3.312 0-6-2.687-6-6M40 144.5a6 6 0 0 1 12 0 6 6 0 0 1-12 0"/>
        <path stroke="#333" stroke-linecap="round" stroke-linejoin="round" d="M26.25 164.988L140.306 50.013"/>
        <path fill="#333" d="M21.277 170l9.894-4.2-4.549-1.187-1.223-4.539zM145.277 45l-4.12 9.926-1.224-4.539-4.548-1.186z"/>
        <path stroke="#333" stroke-linecap="round" stroke-linejoin="round" d="M24.77 47.993l117.016 117.015"/>
        <path fill="#333" d="M19.777 43l4.161 9.91 1.205-4.544 4.543-1.205zM146.777 170l-9.909-4.16 4.544-1.206 1.204-4.543z"/>
        <path stroke="#333" stroke-linecap="round" stroke-linejoin="round" d="M83.277 160v-2.5"/>
        <path stroke="#333" stroke-dasharray="4.81,4.81" stroke-linecap="round" stroke-linejoin="round" d="M83.277 152.69V58.906"/>
        <path stroke="#333" stroke-linecap="round" stroke-linejoin="round" d="M83.277 56.5V54"/>
        <path stroke="#28282B" stroke-width=".75" d="M133.322 82.75h-100a3 3 0 0 1-3-3v-67a3 3 0 0 1 3-3h100a3 3 0 0 1 3 3v67a3 3 0 0 1-3 3z"/>
        <path stroke="#28282B" stroke-width=".75" d="M118.528 70H48.115a3 3 0 0 1-3-3V25.5a3 3 0 0 1 3-3h70.413a3 3 0 0 1 3 3V67a3 3 0 0 1-3 3z"/>
        <path fill="#333" d="M81 34.5a3 3 0 1 1 6 0 3 3 0 0 1-6 0M27 106.5a3 3 0 1 1 6 0 3 3 0 0 1-6 0M133 106.5a3 3 0 1 1 6 0 3 3 0 0 1-6 0"/>
        <path stroke="#333" stroke-linecap="round" stroke-linejoin="round" stroke-width=".5" d="M136.5 107l-1.76-1.776"/>
        <path stroke="#333" stroke-dasharray="4.899,4.899" stroke-linecap="round" stroke-linejoin="round" stroke-width=".5" d="M131.292 101.743L36.468 6.025"/>
        <path stroke="#333" stroke-linecap="round" stroke-linejoin="round" stroke-width=".5" d="M34.744 4.285l-1.76-1.776"/>
        <path fill="#333" d="M30.5 0l4.945 2.104-2.275.591-.612 2.27z"/>
    </g>
</svg>
